<svg width="168" height="43" viewBox="0 0 168 43" fill="none" xmlns="http://www.w3.org/2000/svg">
<path fill-rule="evenodd" clip-rule="evenodd" d="M25.8963 31.5654C24.2045 35.7116 21.6157 39.3107 17.5904 41.62C17.2597 41.8187 14.7893 43.0687 14.5779 42.9969C14.3602 43.071 11.8983 41.82 11.5655 41.62C7.89589 39.5145 5.41981 36.3371 3.72911 32.6505C3.0049 32.3974 2.4852 31.708 2.4852 30.8971L2.48609 30.8437L3.76437 31.1642L3.78527 31.1688C3.88588 31.3744 4.09707 31.516 4.34122 31.516C4.68285 31.516 4.95992 31.2388 4.95992 30.897C4.95992 30.5552 4.68285 30.278 4.34122 30.278C4.21622 30.278 4.09984 30.3153 4.00257 30.379C3.98993 30.3744 3.97708 30.3706 3.96397 30.3673L2.69023 30.0479C2.99832 29.4493 3.62197 29.0401 4.34122 29.0401C5.36622 29.0401 6.19726 29.8714 6.19726 30.8971C6.19726 31.1844 6.13206 31.4565 6.01547 31.6994C7.49633 34.8985 9.63047 37.6556 12.7966 39.4723L12.8273 39.4903C13.2703 39.7455 13.9795 40.1176 14.5755 40.3801C15.1714 40.118 15.8785 39.7485 16.3249 39.4922L16.3593 39.4721C19.5432 37.6455 21.6836 34.8679 23.1652 31.6459C20.5914 31.0267 1.45676 26.4134 1.46569 26.4408C0.398387 22.6149 -0.146813 18.4794 0.0340838 14.5069C0.0699705 13.7188 0.284925 12.9783 1.27278 12.9783C1.96272 12.9783 13.0022 17.9875 14.5778 18.6757C16.1775 17.9786 27.1864 12.9783 27.8829 12.9783C28.8585 12.9783 29.0798 13.7082 29.12 14.4874C29.2986 17.9634 28.8676 21.7664 27.979 25.3378C28.1782 25.6336 28.2945 25.9901 28.2945 26.3737C28.2945 27.3994 27.4636 28.2307 26.4385 28.2307C25.4133 28.2307 24.5824 27.3994 24.5824 26.3737L24.5825 26.3515L25.9022 26.6824C26.009 26.8678 26.2092 26.9926 26.4385 26.9926C26.7801 26.9926 27.0571 26.7154 27.0571 26.3736C27.0571 26.0318 26.7801 25.7546 26.4385 25.7546C26.2997 25.7546 26.1718 25.8002 26.0686 25.8773L24.7734 25.5525C24.9494 25.1959 25.2364 24.904 25.5893 24.7221C26.0259 22.9693 26.3385 21.1676 26.5063 19.3828C26.6569 17.7805 25.3179 16.7426 23.797 17.2931L14.5766 21.3768L5.65117 17.4208C3.9225 16.6612 2.48107 17.7347 2.67377 19.6316C2.83414 21.2099 3.10311 22.7978 3.47592 24.3623L24.7084 29.4706C26.0337 29.7898 26.4231 30.2705 25.8961 31.5654H25.8963Z" fill="#00FFFF"/>
<path fill-rule="evenodd" clip-rule="evenodd" d="M19.3697 0.599986L19.3937 0.600247L19.4175 0.60124L19.4411 0.602704L19.4646 0.604794L19.4879 0.607407L19.511 0.610648L19.5339 0.614463H19.534L19.5566 0.618801L19.5791 0.623766H19.5793L19.6015 0.629201L19.6237 0.635264L19.6455 0.641692L19.6672 0.648748L19.6886 0.656274H19.6887L19.7099 0.664323L19.7308 0.672841L19.7515 0.681988L19.7719 0.691552H19.772L19.7921 0.701586L19.8119 0.711987H19.812L19.8315 0.723015L19.8508 0.734408L19.8697 0.746324L19.8884 0.758606L19.9067 0.771358H19.9068L19.9247 0.784477L19.9425 0.798117L19.9597 0.812124H19.9599L19.9768 0.826497L19.9933 0.841235H19.9934L20.0097 0.856444H20.0098L20.0256 0.872018L20.0412 0.887854L20.0563 0.904212H20.0564L20.0711 0.920937L20.0855 0.937922L20.0995 0.955378L20.1131 0.973096L20.1262 0.991075L20.1389 1.00952L20.1512 1.02823L20.1631 1.04715L20.1744 1.06649L20.1855 1.08604L20.1959 1.10595L20.2059 1.12602L20.2154 1.14656L20.2244 1.16726H20.2245L20.2331 1.18816L20.2411 1.20933L20.2487 1.23086L20.2557 1.25255L20.2621 1.27445L20.2682 1.29661L20.2736 1.31887L20.2786 1.3415L20.2829 1.36413L20.2868 1.38718L20.29 1.41033L20.2926 1.43359L20.2947 1.45711L20.2962 1.48073L20.2971 1.50451L20.2974 1.52855L20.2971 1.55254L20.2962 1.57632L20.2947 1.59995L20.2926 1.62346L20.29 1.64672L20.2868 1.66987L20.2829 1.69282V1.69292L20.2786 1.71555L20.2736 1.73808V1.73818L20.2682 1.76045L20.2621 1.78261L20.2557 1.80451L20.2487 1.82619L20.2441 1.83905L23.968 4.60123C24.1092 4.51448 24.2751 4.46446 24.4529 4.46446C24.9654 4.46446 25.3809 4.88017 25.3809 5.39292C25.3809 5.6072 25.3084 5.80445 25.1864 5.96166L27.8666 10.6865C27.9358 10.6701 28.0081 10.6613 28.0825 10.6613C28.595 10.6613 29.0105 11.077 29.0105 11.5898C29.0105 12.1025 28.595 12.5182 28.0825 12.5182C27.8094 12.5182 27.5639 12.4003 27.394 12.2123L25.0627 12.6221C25.0068 13.0814 24.6158 13.4371 24.1416 13.4371C23.8529 13.4371 23.5951 13.3051 23.4248 13.0983L21.5734 13.9005C21.5038 14.3444 21.1198 14.6839 20.6566 14.6839C20.4655 14.6839 20.2877 14.626 20.1401 14.5268L15.2475 16.9438C15.2594 17.0033 15.2658 17.0646 15.2658 17.1277C15.2658 17.6404 14.8503 18.0561 14.3378 18.0561C13.8253 18.0561 13.4098 17.6404 13.4098 17.1277C13.4098 16.9827 13.4431 16.8456 13.5024 16.7232C12.9607 16.253 12.1773 15.6233 11.6355 15.153C11.4172 15.2661 11.3806 15.3168 11.1236 15.3168C10.6111 15.3168 10.1956 14.9011 10.1956 14.3884C10.1956 14.3348 10.2002 14.2822 10.2089 14.2309L7.64924 13.5091C7.48009 13.7368 7.20925 13.8842 6.90397 13.8842C6.42501 13.8842 6.03088 13.5212 5.98126 13.0551L1.70635 11.2388C1.54092 11.3919 1.31953 11.4856 1.07642 11.4856C0.563927 11.4856 0.148438 11.0698 0.148438 10.5571C0.148438 10.0443 0.563927 9.62858 1.07642 9.62858L1.08891 9.62868L3.22681 5.65356C3.09282 5.49264 3.01227 5.28563 3.01227 5.05985C3.01227 4.54709 3.42776 4.13139 3.94026 4.13139C4.08689 4.13139 4.22547 4.16557 4.3487 4.22609L7.36585 2.17474C7.34976 2.10617 7.3412 2.03473 7.3412 1.9613C7.3412 1.44854 7.75669 1.03283 8.26918 1.03283C8.66785 1.03283 9.00776 1.28427 9.13919 1.63737L13.0408 0.82796C13.0909 0.3625 13.4848 0 13.9634 0C14.4084 0 14.7803 0.313477 14.8705 0.731795L18.57 1.05687C18.7314 0.783536 19.0289 0.600038 19.3693 0.600038L19.3697 0.599986ZM24.6716 6.29557C24.6075 6.31104 24.541 6.31982 24.4724 6.32118L23.159 9.0253C23.3673 9.18799 23.5043 9.43766 23.5157 9.71967L27.2793 11.1251C27.3008 11.088 27.3249 11.0527 27.3511 11.019L24.6716 6.29557V6.29557ZM19.8588 2.31758L19.8509 2.32254L19.8316 2.33394L19.8121 2.34496H19.812L19.7922 2.35536L19.7721 2.3654H19.772L19.7516 2.37496L19.7309 2.384V2.38411L19.71 2.39263L19.6888 2.40068H19.6887L19.6673 2.4082L19.6456 2.41526L19.6238 2.42169L19.6016 2.42775L19.5794 2.43318H19.5793L19.5567 2.4381L19.5501 2.43935L19.3695 3.95771L19.0476 6.66455C19.207 6.74613 19.3397 6.8723 19.4293 7.02679L23.5264 5.43881C23.5256 5.4236 23.5253 5.40824 23.5253 5.39287C23.5253 5.28218 23.5446 5.17598 23.5801 5.07767L19.8589 2.31747L19.8588 2.31758ZM14.795 1.34145C14.6882 1.55599 14.5013 1.72334 14.2731 1.80409V5.7167C14.3904 5.75819 14.4968 5.82258 14.587 5.90453L18.5033 1.86179L18.4979 1.84778V1.84767L18.4904 1.82625L18.4834 1.80456L18.4769 1.78266L18.4709 1.7605L18.4655 1.73823V1.73813L18.4605 1.7156L18.4562 1.69297V1.69287L18.4523 1.66993L18.4513 1.66287L14.7949 1.3415L14.795 1.34145ZM9.1475 2.26275C9.13512 2.29902 9.12038 2.3343 9.10382 2.36832L13.2589 5.98857C13.3636 5.86622 13.4995 5.77157 13.6544 5.7167V1.80409C13.4573 1.73442 13.2908 1.59995 13.1803 1.42627L9.14755 2.2628L9.1475 2.26275ZM6.852 11.9256L7.76254 8.72734C7.56592 8.55712 7.44144 8.30557 7.44144 8.02492C7.44144 7.93382 7.45465 7.84576 7.47905 7.76271L4.51335 5.79034L4.51209 5.79133L6.85195 11.9255L6.852 11.9256ZM8.34164 8.95302L7.42143 12.1847C7.66073 12.3457 7.82094 12.6151 7.83175 12.9224L10.5226 13.6813L10.5534 13.6562L10.2085 12.8245L8.59148 8.92662C8.52034 8.94408 8.446 8.95333 8.36953 8.95333L8.34169 8.95296L8.34164 8.95302ZM9.29699 8.05262L14.8589 11.9985C14.8867 11.9693 14.9163 11.9418 14.9477 11.9165L13.6091 7.45059C13.4789 7.39661 13.3635 7.31392 13.2711 7.21018L9.29104 7.91543C9.29527 7.95133 9.29747 7.98786 9.29747 8.02487L9.29699 8.05262ZM14.6053 12.5773L9.17857 8.72729L11.1417 13.46C11.6459 13.4695 12.0519 13.8815 12.0519 14.3883C12.0519 14.4779 12.0393 14.5642 12.0157 14.646L13.92 16.2986C13.975 16.2708 14.0333 16.2483 14.0939 16.2318L14.8791 13.2987C14.7089 13.1304 14.6032 12.8968 14.6032 12.6383C14.6032 12.6177 14.6039 12.5975 14.6053 12.5772V12.5773ZM19.6308 14.0881L16.2577 13.2161C16.0876 13.4298 15.8255 13.5668 15.5312 13.5668C15.495 13.5668 15.4591 13.5648 15.4238 13.5606L14.6981 16.2715C14.7819 16.3068 14.8594 16.3541 14.9285 16.4112L19.6308 14.0881V14.0881ZM6.12914 12.4452C6.1795 12.369 6.24077 12.3005 6.31067 12.2422L3.92516 5.98815C3.86676 5.98716 3.80972 5.98084 3.7543 5.96955L1.67072 9.84353C1.87487 10.0139 2.00483 10.2703 2.00483 10.557C2.00483 10.6018 2.00159 10.6457 1.99553 10.6888L6.12914 12.4451V12.4452ZM26.9531 11.6641L23.3327 10.3121C23.3056 10.3483 23.2758 10.3826 23.2439 10.4146L23.8816 11.6173C23.9643 11.5931 24.0516 11.5801 24.142 11.5801C24.4752 11.5801 24.7672 11.7558 24.9309 12.0195L26.9531 11.6641ZM23.2142 12.5179L23.2141 12.5086C23.2141 12.3139 23.2739 12.1334 23.3764 11.984L22.6855 10.6808C22.6535 10.6842 22.6212 10.6859 22.5885 10.6859C22.5184 10.6859 22.4501 10.6781 22.3845 10.6634L21.2353 13.0293C21.3226 13.099 21.3969 13.1841 21.4545 13.2804L23.2142 12.5179H23.2142ZM19.7691 13.4845C19.805 13.3668 19.8637 13.2591 19.9398 13.1663L18.5714 8.41883C18.5136 8.41548 18.4573 8.4067 18.4029 8.39332L16.2105 12.0057C16.3629 12.1694 16.4566 12.3884 16.4591 12.6289L19.7691 13.4845V13.4845ZM20.4902 12.842C20.5407 12.8329 20.5926 12.8276 20.6457 12.827L21.8585 10.3306C21.7346 10.1728 21.6605 9.97372 21.6605 9.75746C21.6605 9.25196 22.0641 8.84086 22.5665 8.8292L23.8806 6.12357C23.8376 6.08975 23.7977 6.05223 23.7614 6.01152L19.541 7.64737C19.4994 7.89384 19.3608 8.10713 19.1659 8.24693L20.4902 12.8419L20.4902 12.842ZM15.5317 11.7099C15.5757 11.7099 15.6184 11.713 15.6608 11.7189L16.2888 10.6841L17.886 8.05225C17.768 7.89651 17.6978 7.7024 17.6978 7.49183C17.6978 7.04477 18.0138 6.67155 18.4342 6.58312L18.9376 2.35024L18.9274 2.34491L18.9079 2.33388L18.9077 2.33378L14.8858 6.4857C14.8897 6.52062 14.8918 6.55626 14.8918 6.59232C14.8918 7.00087 14.628 7.34784 14.2615 7.47202L15.5318 11.7099H15.5317ZM7.69724 2.69205L4.78414 4.67247C4.83831 4.79032 4.86867 4.92156 4.86867 5.05985C4.86867 5.1314 4.86062 5.20096 4.84526 5.2678L7.84209 7.26098C7.99196 7.15734 8.17359 7.09646 8.36948 7.09646C8.61076 7.09646 8.83036 7.18854 8.99543 7.33948L13.0363 6.62331L13.036 6.61526L8.66101 2.80326C8.54212 2.85871 8.40944 2.88981 8.2696 2.88981C8.0536 2.88981 7.85484 2.81591 7.69724 2.6921V2.69205Z" fill="#00FFFF"/>
<path fill-rule="evenodd" clip-rule="evenodd" d="M2.13631 30.032L3.9682 30.5008C4.31364 30.5892 4.21554 31.1565 3.82873 31.0576L1.99684 30.5888C1.84441 30.5498 1.73863 30.3905 1.78846 30.2409L1.78857 30.2405C1.8384 30.0908 1.98356 29.993 2.13625 30.032H2.13631Z" fill="#00FFFF"/>
<path fill-rule="evenodd" clip-rule="evenodd" d="M24.2814 25.5403L26.1133 26.0091C26.4802 26.103 26.3669 26.6665 25.9739 26.5659L24.142 26.0971C23.9895 26.0581 23.8838 25.8989 23.9336 25.7492L23.9337 25.7488C23.9836 25.5991 24.1287 25.5013 24.2814 25.5403H24.2814Z" fill="#00FFFF"/>
<path fill-rule="evenodd" clip-rule="evenodd" d="M37.3308 12.7913C37.771 12.7913 38.157 13.0232 38.3736 13.3716L42.4572 19.3847C42.5612 19.5757 42.7636 19.7052 42.9963 19.7052C43.2178 19.7052 43.412 19.5877 43.5198 19.4116L47.635 13.339C47.8549 13.0088 48.2305 12.7913 48.6568 12.7913C49.3149 12.7913 49.852 13.3096 49.8827 13.9604L49.8841 19.1503C49.8741 19.8319 49.343 20.3782 48.6568 20.3782C48.4251 20.3782 48.2085 20.3139 48.0237 20.2023L44.9273 18.4228L44.038 19.7407C43.8212 20.088 43.4357 20.3191 42.9963 20.3191C42.5608 20.3191 42.1783 20.0921 41.9605 19.75L37.8491 13.6904C37.7402 13.519 37.5487 13.4053 37.3308 13.4053C36.9919 13.4053 36.7171 13.6801 36.7171 14.0192C36.748 16.1096 36.7182 18.226 36.7174 20.3191H36.1035V14.0192C36.1035 13.341 36.653 12.7913 37.3308 12.7913V12.7913ZM48.3419 19.6774C48.434 19.7325 48.5417 19.7643 48.6568 19.7643C49.0979 19.7643 49.2528 19.3648 49.2747 19.2125L49.2694 13.9834C49.2601 13.6606 48.9837 13.4052 48.6568 13.4052C48.4424 13.4052 48.2537 13.5153 48.144 13.6819L45.2735 17.9134L48.342 19.6774H48.3419Z" fill="white"/>
<path fill-rule="evenodd" clip-rule="evenodd" d="M53.5843 14.8219C52.0882 14.5322 50.8108 16.0819 50.8108 17.6061V17.6062C50.8108 19.1308 52.0575 20.3781 53.5813 20.3781H62.1537C63.6394 20.3781 64.7721 19.2173 64.832 17.7449L64.9281 15.9696C65.0192 14.2838 63.5474 12.8999 61.8599 12.8999H51.2605V13.5138H61.8599C63.1697 13.5138 64.2505 14.5571 64.3117 15.8531C64.3135 15.8915 64.2844 16.8988 64.2844 16.9379L53.5843 14.8218L53.5843 14.8219ZM64.2493 17.6061L53.5813 15.5095C52.4504 15.2873 51.4858 16.453 51.4858 17.6061C51.4858 18.7593 52.4288 19.7028 53.5813 19.7028H62.1538C63.3063 19.7028 64.2493 18.7593 64.2493 17.6061V17.6061Z" fill="white"/>
<path fill-rule="evenodd" clip-rule="evenodd" d="M79.246 18.0963C79.604 18.3108 79.8436 18.7026 79.8436 19.1505C79.8436 19.8205 79.3072 20.3652 78.6407 20.3782L66.1061 20.3784V20.3041V19.7642V6.88428H66.72V19.4561L79.515 13.0342L79.7868 13.5849L75.3706 15.8014C76.6618 16.5666 77.9552 17.3344 79.246 18.0964V18.0963ZM74.7184 16.1287L67.4751 19.7642L78.6257 19.7644C78.9602 19.7594 79.23 19.4864 79.23 19.1505C79.23 18.9411 79.1252 18.7562 78.9651 18.6454L74.7184 16.1287L74.7184 16.1287Z" fill="white"/>
<path fill-rule="evenodd" clip-rule="evenodd" d="M84.0063 20.3786H94.6057V19.7646H87.6998L93.9344 16.4399C94.5231 16.1259 94.9236 15.5056 94.9236 14.7917C94.9236 13.7607 94.0883 12.925 93.0579 12.925H84.0063C82.319 12.925 80.9381 14.3064 80.9381 15.9948V17.3088C80.9381 18.9971 82.3188 20.3786 84.0063 20.3786ZM86.3941 19.7646H84.0063C82.6575 19.7646 81.5518 18.6583 81.5518 17.3088V15.9948C81.5518 14.6453 82.6575 13.539 84.0063 13.539H93.0579C93.7525 13.5484 94.3099 14.092 94.3099 14.7917C94.3099 15.2863 94.0234 15.7139 93.6074 15.9175L86.3941 19.7646H86.3941Z" fill="white"/>
<path fill-rule="evenodd" clip-rule="evenodd" d="M110.738 16.8984C111.529 16.8984 112.17 17.5397 112.17 18.3314C112.17 19.1231 111.529 19.7644 110.738 19.7644C106.768 19.7644 102.798 19.7624 98.8287 19.7642V20.3785C102.798 20.3783 106.768 20.3785 110.738 20.3785C111.868 20.3785 112.784 19.462 112.784 18.3314C112.784 17.201 111.868 16.2845 110.738 16.2845C107.445 16.2845 104.152 16.2846 100.859 16.2846C100.075 16.2762 99.4423 15.6382 99.4423 14.8517C99.4423 14.0663 100.073 13.4289 100.856 13.4189C104.832 13.4189 108.81 13.3315 112.786 13.3315V12.7173L100.774 12.8074C99.6906 12.8599 98.8286 13.755 98.8286 14.8517C98.8286 15.9771 99.7362 16.8902 100.859 16.8985C104.152 16.9 107.445 16.8985 110.738 16.8985L110.738 16.8984Z" fill="white"/>
<path fill-rule="evenodd" clip-rule="evenodd" d="M117.622 6.94678H118.236V12.7174H121.36V13.3316H118.236V18.4665C118.236 19.1835 118.758 19.7646 119.488 19.7646C120.586 19.7646 121.685 19.7617 122.784 19.7643V20.3785C121.685 20.378 120.587 20.3785 119.488 20.3785C118.44 20.3785 117.634 19.5429 117.622 18.5031V13.3316H114.702V12.7174H117.622V6.94678H117.622Z" fill="white"/>
<path fill-rule="evenodd" clip-rule="evenodd" d="M126.812 20.3786H137.412V19.7646H130.506L136.74 16.4399C137.329 16.1259 137.73 15.5056 137.73 14.7917C137.73 13.7607 136.894 12.925 135.864 12.925H126.812C125.125 12.925 123.744 14.3064 123.744 15.9948V17.3088C123.744 18.9971 125.125 20.3786 126.812 20.3786V20.3786ZM129.2 19.7646H126.812C125.464 19.7646 124.358 18.6583 124.358 17.3088V15.9948C124.358 14.6453 125.464 13.539 126.812 13.539H135.864C136.558 13.5484 137.116 14.092 137.116 14.7917C137.116 15.2863 136.829 15.7139 136.413 15.9175L129.2 19.7646V19.7646Z" fill="white"/>
<path fill-rule="evenodd" clip-rule="evenodd" d="M155.402 12.7913C155.842 12.7913 156.228 13.0232 156.445 13.3716L160.529 19.3847C160.633 19.5757 160.835 19.7052 161.068 19.7052C161.289 19.7052 161.483 19.5877 161.591 19.4116L165.706 13.339C165.926 13.0088 166.302 12.7913 166.728 12.7913C167.386 12.7913 167.923 13.3096 167.954 13.9604L167.955 19.1503C167.945 19.8319 167.414 20.3782 166.728 20.3782C166.496 20.3782 166.28 20.3139 166.095 20.2023L162.999 18.4228L162.109 19.7407C161.893 20.088 161.507 20.3191 161.068 20.3191C160.632 20.3191 160.25 20.0921 160.032 19.75L155.92 13.6904C155.812 13.519 155.62 13.4053 155.402 13.4053C155.063 13.4053 154.788 13.6801 154.788 14.0192C154.819 16.1096 154.79 18.226 154.789 20.3191H154.175V14.0192C154.175 13.341 154.724 12.7913 155.402 12.7913V12.7913ZM166.413 19.6774C166.505 19.7325 166.613 19.7643 166.728 19.7643C167.169 19.7643 167.324 19.3648 167.346 19.2125L167.341 13.9834C167.331 13.6606 167.055 13.4052 166.728 13.4052C166.514 13.4052 166.325 13.5153 166.215 13.6819L163.345 17.9134L166.413 19.6774H166.413Z" fill="white"/>
<path fill-rule="evenodd" clip-rule="evenodd" d="M141.35 14.8219C139.854 14.5322 138.577 16.0819 138.577 17.6061V17.6062C138.577 19.1308 139.824 20.3781 141.347 20.3781H149.92C151.405 20.3781 152.538 19.2173 152.598 17.7449L152.694 15.9696C152.785 14.2838 151.313 12.8999 149.626 12.8999H139.026V13.5138H149.626C150.936 13.5138 152.016 14.5571 152.078 15.8531C152.079 15.8915 152.05 16.8988 152.05 16.9379L141.35 14.8218L141.35 14.8219ZM152.015 17.6061L141.347 15.5095C140.216 15.2873 139.252 16.453 139.252 17.6061C139.252 18.7593 140.195 19.7028 141.347 19.7028H149.92C151.072 19.7028 152.015 18.7593 152.015 17.6061H152.015Z" fill="white"/>
<path d="M44.3402 34.7951C44.4458 34.7951 44.5386 34.8338 44.6163 34.9113C44.6939 34.9887 44.7327 35.0812 44.7327 35.1845C44.7327 35.2942 44.6939 35.3867 44.6163 35.4599C44.5386 35.533 44.4458 35.5695 44.3402 35.5695H38.0913C37.8088 35.5695 37.5434 35.5157 37.2954 35.4082C37.0452 35.3007 36.8295 35.1565 36.6439 34.9715C36.4584 34.7864 36.3117 34.5691 36.2061 34.3217C36.0983 34.0743 36.0443 33.8076 36.0443 33.5279V27.2781C36.0443 26.9985 36.0983 26.7339 36.2061 26.4886C36.3117 26.2412 36.4584 26.026 36.6439 25.841C36.8295 25.6559 37.0452 25.5118 37.2954 25.4043C37.5434 25.2967 37.8087 25.2429 38.0913 25.2429H44.3402C44.4458 25.2429 44.5364 25.2794 44.6097 25.3548C44.6831 25.428 44.7198 25.5205 44.7198 25.6302C44.7198 25.7356 44.6832 25.826 44.6097 25.9034C44.5364 25.9787 44.4458 26.0175 44.3402 26.0175H38.0913C37.9145 26.0175 37.7483 26.0519 37.5952 26.1186C37.4421 26.1853 37.3083 26.2757 37.194 26.3918C37.0797 26.508 36.9891 26.6414 36.9222 26.7963C36.8554 26.949 36.8208 27.1105 36.8208 27.2825V29.9157H44.1762C44.2862 29.9157 44.3768 29.9545 44.4523 30.0319C44.5256 30.1093 44.5623 30.1998 44.5623 30.2987C44.5623 30.4041 44.5256 30.4966 44.4523 30.574C44.3768 30.6515 44.2862 30.6902 44.1762 30.6902H36.8208V33.5279C36.8208 33.7043 36.8553 33.87 36.9222 34.0228C36.9891 34.1755 37.0797 34.3089 37.194 34.423C37.3083 34.537 37.4421 34.6273 37.5952 34.6941C37.7483 34.7608 37.9145 34.7952 38.0913 34.7952H44.3402V34.7951ZM54.1771 25.628C54.1771 25.5183 54.2138 25.4279 54.2871 25.3526C54.3604 25.2794 54.451 25.2429 54.5568 25.2429C54.6646 25.2429 54.7574 25.2794 54.8307 25.3526C54.9041 25.4257 54.9407 25.5183 54.9407 25.628V33.5279C54.9407 33.8075 54.8868 34.0743 54.7789 34.3216C54.6711 34.5691 54.5266 34.7863 54.3411 34.9714C54.1555 35.1564 53.9398 35.3006 53.6918 35.4081C53.4459 35.5156 53.1827 35.5695 52.9002 35.5695H49.1448C48.8622 35.5695 48.5969 35.5156 48.3489 35.4081C48.1008 35.3006 47.883 35.1564 47.6974 34.9714C47.5119 34.7863 47.3675 34.5691 47.2596 34.3216C47.1518 34.0742 47.0978 33.8096 47.0978 33.5279V30.8989C47.0978 30.6171 47.1518 30.3524 47.2596 30.1051C47.3674 29.8577 47.5119 29.6404 47.6974 29.4553C47.883 29.2703 48.1008 29.1261 48.3489 29.0186C48.5969 28.9111 48.8644 28.8573 49.1448 28.8573H54.1771V25.628V25.628ZM47.8744 33.5279C47.8744 33.7043 47.9089 33.8699 47.9758 34.0227C48.0427 34.1754 48.1332 34.3088 48.2476 34.4229C48.3619 34.5369 48.4956 34.6272 48.6488 34.694C48.8019 34.7607 48.9681 34.7951 49.1449 34.7951H52.9003C53.0771 34.7951 53.2433 34.7607 53.3985 34.694C53.556 34.6272 53.6897 34.5369 53.804 34.4229C53.9184 34.3088 54.009 34.1755 54.0759 34.0227C54.1428 33.8699 54.1772 33.7043 54.1772 33.5279V29.6316H49.1449C48.9681 29.6316 48.8019 29.666 48.6488 29.7327C48.4956 29.7994 48.3619 29.8898 48.2476 30.0039C48.1332 30.1179 48.0427 30.2513 47.9758 30.404C47.9089 30.5568 47.8744 30.7225 47.8744 30.8989V33.5279ZM59.4737 35.5695C59.1911 35.5695 58.9258 35.5156 58.6778 35.4081C58.4297 35.3006 58.2119 35.1564 58.0263 34.9714C57.8408 34.7863 57.6941 34.5691 57.5885 34.3216C57.4807 34.0742 57.4267 33.8096 57.4267 33.5279V29.2423C57.4267 29.1412 57.4634 29.0508 57.5367 28.9734C57.6101 28.896 57.7028 28.8573 57.8128 28.8573C57.9164 28.8573 58.0091 28.896 58.0868 28.9734C58.1644 29.0508 58.2033 29.1413 58.2033 29.2423V33.5279C58.2033 33.7043 58.2378 33.8699 58.3047 34.0227C58.3716 34.1754 58.4621 34.3088 58.5765 34.4229C58.6908 34.5369 58.8245 34.6272 58.9777 34.694C59.1308 34.7607 59.297 34.7951 59.4738 34.7951H64.3767C64.3767 34.2142 64.3767 33.6119 64.3767 32.9857C64.3767 32.7211 64.3767 32.4371 64.3767 32.1359C64.3767 31.8325 64.3767 31.5206 64.3767 31.2022C64.3767 30.8838 64.3767 30.559 64.3767 30.2277C64.3767 29.8985 64.3767 29.5736 64.3767 29.2552C64.3767 29.1541 64.4133 29.0638 64.4845 28.9863C64.5557 28.9088 64.6441 28.8701 64.7498 28.8701C64.8576 28.8701 64.9504 28.9088 65.0259 28.9863C65.1014 29.0637 65.1402 29.1541 65.1402 29.2552V35.1844C65.1402 35.2855 65.1014 35.3759 65.0259 35.4533C64.9504 35.5307 64.8576 35.5695 64.7477 35.5695H59.4738H59.4737ZM75.1369 28.8572C75.2425 28.8572 75.3331 28.8937 75.4087 28.9668C75.4842 29.04 75.5209 29.1325 75.5209 29.2401C75.5209 29.3455 75.4842 29.438 75.4087 29.5155C75.3332 29.5929 75.2426 29.6316 75.1369 29.6316H69.6516C69.4747 29.6316 69.3087 29.666 69.1555 29.7327C69.0001 29.7994 68.8643 29.892 68.7478 30.006C68.6292 30.1222 68.5364 30.2577 68.4696 30.4126C68.4027 30.5697 68.3682 30.7353 68.3682 30.9117V33.5148C68.3682 33.6912 68.4027 33.8569 68.4696 34.0139C68.5365 34.1689 68.6292 34.3044 68.7435 34.4205C68.86 34.5346 68.9959 34.627 69.1512 34.6938C69.3087 34.7605 69.4747 34.7949 69.6516 34.7949H75.111C75.221 34.7949 75.3116 34.8337 75.3849 34.9089C75.4604 34.9842 75.4971 35.0768 75.4971 35.1843C75.4971 35.294 75.4604 35.3866 75.3849 35.4597C75.3116 35.5328 75.221 35.5694 75.111 35.5694H69.6516C69.3648 35.5694 69.0951 35.5156 68.8449 35.408C68.5947 35.3005 68.3768 35.1563 68.1913 34.9713C68.0058 34.7863 67.8591 34.569 67.7535 34.3173C67.6456 34.0677 67.5917 33.8009 67.5917 33.5148V30.9117C67.5917 30.6255 67.6456 30.3588 67.7535 30.1092C67.8591 29.8576 68.0058 29.6403 68.1913 29.4552C68.3768 29.2702 68.5947 29.126 68.8449 29.0185C69.0951 28.911 69.3648 28.8572 69.6516 28.8572H75.1369V28.8572ZM83.6905 28.8572C83.9687 28.8572 84.2297 28.9088 84.4735 29.0142C84.7172 29.1196 84.9307 29.2616 85.1119 29.4402C85.2931 29.6188 85.4355 29.8296 85.5411 30.0727C85.6468 30.318 85.6986 30.5783 85.6986 30.8558V33.5709C85.6986 33.8484 85.6468 34.1087 85.5411 34.354C85.4355 34.5971 85.2931 34.8079 85.1119 34.9865C84.9308 35.1652 84.7194 35.3071 84.4756 35.4125C84.234 35.5179 83.9752 35.5695 83.7013 35.5695H79.6785C79.4002 35.5695 79.1392 35.5179 78.8933 35.4125C78.6496 35.3071 78.4382 35.1651 78.2591 34.9844C78.0801 34.8037 77.9377 34.5907 77.8321 34.3476C77.7264 34.1023 77.6746 33.8441 77.6746 33.5709C77.6746 33.2955 77.7264 33.0352 77.8321 32.7899C77.9377 32.5468 78.0823 32.3339 78.2656 32.1531C78.449 31.9724 78.6625 31.8304 78.9063 31.7249C79.1522 31.6195 79.4132 31.5678 79.6914 31.5678H84.948V30.8557C84.948 30.6815 84.9136 30.5201 84.8467 30.3696C84.7798 30.2169 84.6892 30.0855 84.5748 29.9716C84.4605 29.8576 84.3289 29.7694 84.178 29.7027C84.0248 29.6382 83.863 29.6059 83.6905 29.6059H78.1319C78.0219 29.6059 77.9292 29.5693 77.8537 29.4961C77.7782 29.423 77.7394 29.3326 77.7394 29.2272C77.7394 29.1283 77.7782 29.0401 77.8537 28.9669C77.9292 28.8938 78.022 28.8573 78.1319 28.8573H83.6905L83.6905 28.8572ZM78.4381 33.5708C78.4381 33.745 78.4705 33.9043 78.5352 34.0549C78.602 34.2033 78.6906 34.3346 78.8005 34.4443C78.9127 34.5562 79.0443 34.6444 79.1931 34.7111C79.3419 34.7756 79.5037 34.8079 79.6762 34.8079H83.7034C83.876 34.8079 84.0377 34.7757 84.1887 34.7111C84.3418 34.6444 84.4735 34.5561 84.5856 34.4443C84.6956 34.3346 84.784 34.2033 84.8509 34.0549C84.9155 33.9044 84.9479 33.7451 84.9479 33.5708V32.3166H79.6892C79.5166 32.3166 79.3549 32.351 79.2039 32.4177C79.0507 32.4843 78.9191 32.5748 78.8048 32.6888C78.6905 32.8028 78.602 32.9341 78.5352 33.0868C78.4706 33.2373 78.4381 33.3988 78.4381 33.5708ZM91.5796 34.795C91.6875 34.795 91.7803 34.8337 91.8536 34.9112C91.9269 34.9886 91.9637 35.0811 91.9637 35.1844C91.9637 35.2941 91.9269 35.3866 91.8536 35.4598C91.7803 35.5329 91.6876 35.5695 91.5796 35.5695H90.2078C89.9252 35.5695 89.6599 35.5156 89.4119 35.4081C89.1617 35.3006 88.9459 35.1564 88.7604 34.9714C88.5749 34.7863 88.4282 34.5691 88.3225 34.3216C88.2147 34.0742 88.1608 33.8075 88.1608 33.5279V25.628C88.1608 25.5183 88.1975 25.4257 88.2708 25.3526C88.3442 25.2794 88.4369 25.2429 88.5469 25.2429C88.6505 25.2429 88.7432 25.2794 88.8209 25.3526C88.8985 25.4279 88.9374 25.5183 88.9374 25.628V28.8443H91.5667C91.6767 28.8443 91.7673 28.8809 91.8407 28.954C91.914 29.0271 91.9506 29.1197 91.9506 29.2272C91.9506 29.3326 91.914 29.423 91.8407 29.4961C91.7673 29.5693 91.6767 29.6059 91.5667 29.6059H88.9374V33.5279C88.9374 33.7043 88.9718 33.8699 89.0388 34.0227C89.1057 34.1754 89.1962 34.3088 89.3106 34.4229C89.4249 34.5369 89.5586 34.6272 89.7118 34.694C89.8649 34.7607 90.031 34.7951 90.2079 34.7951H91.5797L91.5796 34.795ZM94.5962 28.8572C94.6998 28.8572 94.7925 28.8937 94.8702 28.9668C94.9478 29.04 94.9867 29.1282 94.9867 29.2293V35.1843C94.9867 35.294 94.9478 35.3866 94.8702 35.4597C94.7926 35.5328 94.6998 35.5694 94.5962 35.5694C94.4862 35.5694 94.3935 35.5328 94.3201 35.4597C94.2468 35.3866 94.2101 35.294 94.2101 35.1843V29.2293C94.2101 29.1282 94.2468 29.04 94.3201 28.9668C94.3935 28.8937 94.4862 28.8572 94.5962 28.8572ZM94.2101 27.5771C94.2101 27.4673 94.2468 27.3749 94.3201 27.3017C94.3935 27.2286 94.4862 27.192 94.5962 27.192C94.6998 27.192 94.7925 27.2286 94.8702 27.3017C94.9478 27.3749 94.9867 27.4673 94.9867 27.5771V28.031C94.9867 28.1343 94.9478 28.2268 94.8702 28.3021C94.7926 28.3774 94.6998 28.414 94.5962 28.414C94.4862 28.414 94.3935 28.3774 94.3201 28.3021C94.2468 28.2268 94.2101 28.1343 94.2101 28.031V27.5771ZM104.509 28.8572C104.789 28.8572 105.054 28.911 105.3 29.0185C105.548 29.126 105.764 29.2703 105.95 29.4552C106.135 29.6403 106.28 29.8576 106.387 30.105C106.495 30.3524 106.549 30.617 106.549 30.8988V33.5278C106.549 33.8095 106.495 34.0742 106.387 34.3216C106.28 34.569 106.135 34.7863 105.95 34.9713C105.764 35.1563 105.548 35.3005 105.3 35.408C105.054 35.5156 104.789 35.5694 104.509 35.5694H99.6145C99.3341 35.5694 99.0666 35.5156 98.8185 35.408C98.5705 35.3005 98.3526 35.1563 98.1671 34.9713C97.9816 34.7863 97.8371 34.569 97.7292 34.3216C97.6214 34.0742 97.5675 33.8095 97.5675 33.5278V30.8988C97.5675 30.617 97.6214 30.3523 97.7292 30.105C97.837 29.8576 97.9816 29.6403 98.1671 29.4552C98.3526 29.2702 98.5705 29.126 98.8185 29.0185C99.0666 28.911 99.334 28.8572 99.6145 28.8572H104.509V28.8572ZM98.344 33.5279C98.344 33.7043 98.3785 33.8699 98.4454 34.0227C98.5123 34.1754 98.6029 34.3088 98.7172 34.4229C98.8316 34.5369 98.9653 34.6272 99.1185 34.694C99.2716 34.7607 99.4377 34.7951 99.6146 34.7951H104.509C104.681 34.7951 104.845 34.7607 104.998 34.694C105.152 34.6272 105.285 34.5369 105.4 34.4229C105.514 34.3088 105.605 34.1755 105.671 34.0227C105.738 33.8699 105.773 33.7043 105.773 33.5279V30.8989C105.773 30.7225 105.738 30.5568 105.671 30.404C105.605 30.2513 105.514 30.1179 105.4 30.0039C105.285 29.8898 105.152 29.7995 104.998 29.7327C104.845 29.666 104.681 29.6316 104.509 29.6316H99.6146C99.4377 29.6316 99.2716 29.666 99.1185 29.7327C98.9653 29.7994 98.8316 29.8898 98.7172 30.0039C98.6029 30.1179 98.5123 30.2513 98.4454 30.404C98.3785 30.5568 98.344 30.7225 98.344 30.8989V33.5279ZM114.316 28.8572C114.598 28.8572 114.863 28.911 115.116 29.0185C115.366 29.1239 115.582 29.2703 115.765 29.4552C115.948 29.6403 116.095 29.8554 116.201 30.105C116.309 30.3524 116.363 30.617 116.363 30.8988V35.1843C116.363 35.294 116.324 35.3844 116.248 35.4576C116.173 35.5328 116.08 35.5695 115.972 35.5695C115.866 35.5695 115.778 35.5329 115.707 35.4576C115.636 35.3844 115.599 35.2941 115.599 35.1843V30.8988C115.599 30.7224 115.565 30.5568 115.498 30.404C115.431 30.2513 115.338 30.1178 115.224 30.0038C115.107 29.8897 114.971 29.7994 114.816 29.7327C114.659 29.6659 114.492 29.6315 114.316 29.6315H109.685V35.1843C109.685 35.294 109.646 35.3844 109.568 35.4576C109.49 35.5328 109.398 35.5695 109.294 35.5695C109.184 35.5695 109.091 35.5329 109.018 35.4576C108.945 35.3844 108.908 35.2941 108.908 35.1843V29.24C108.908 29.141 108.945 29.0528 109.018 28.9797C109.091 28.9065 109.184 28.8656 109.294 28.8571H114.316L114.316 28.8572Z" fill="white"/>
</svg>
