<svg width="247" height="63" viewBox="0 0 247 63" fill="none" xmlns="http://www.w3.org/2000/svg">
<path fill-rule="evenodd" clip-rule="evenodd" d="M37.9412 46.2469C35.4625 52.3216 31.6696 57.5946 25.7721 60.978C25.2875 61.2692 21.6681 63.1005 21.3585 62.9953C21.0394 63.1038 17.4326 61.271 16.9449 60.978C11.5685 57.8932 7.94081 53.2379 5.46375 47.8367C4.4027 47.4659 3.64127 46.4558 3.64127 45.2677L3.64257 45.1895L5.51541 45.6591L5.54602 45.6658C5.69342 45.9671 6.00284 46.1745 6.36056 46.1745C6.86108 46.1745 7.26702 45.7684 7.26702 45.2676C7.26702 44.7668 6.86108 44.3607 6.36056 44.3607C6.17742 44.3607 6.0069 44.4153 5.8644 44.5087C5.84588 44.502 5.82705 44.4964 5.80784 44.4915L3.94166 44.0235C4.39305 43.1466 5.30678 42.547 6.36056 42.547C7.86229 42.547 9.07985 43.7649 9.07985 45.2677C9.07985 45.6887 8.98433 46.0873 8.81351 46.4432C10.9831 51.1302 14.1099 55.1697 18.7486 57.8314L18.7936 57.8577C19.4427 58.2317 20.4816 58.7767 21.355 59.1614C22.228 58.7774 23.2639 58.2361 23.918 57.8606L23.9683 57.8312C28.6332 55.155 31.769 51.0854 33.9397 46.3648C30.169 45.4576 2.13449 38.6986 2.14758 38.7388C0.58386 33.1335 -0.214918 27.0744 0.0501154 21.2543C0.102693 20.0996 0.417625 19.0146 1.86494 19.0146C2.87579 19.0146 19.0499 26.3538 21.3583 27.362C23.702 26.3407 39.8313 19.0146 40.8517 19.0146C42.2811 19.0146 42.6053 20.0841 42.6642 21.2257C42.9259 26.3184 42.2945 31.8903 40.9925 37.1227C41.2844 37.5562 41.4548 38.0784 41.4548 38.6404C41.4548 40.1432 40.2375 41.3611 38.7355 41.3611C37.2336 41.3611 36.0162 40.1432 36.0162 38.6404L36.0164 38.608L37.9498 39.0928C38.1063 39.3644 38.3996 39.5473 38.7355 39.5473C39.236 39.5473 39.6419 39.1411 39.6419 38.6404C39.6419 38.1396 39.236 37.7334 38.7355 37.7334C38.5322 37.7334 38.3448 37.8002 38.1937 37.9132L36.2959 37.4373C36.5539 36.9149 36.9743 36.4872 37.4913 36.2206C38.1311 33.6527 38.589 31.0129 38.8349 28.398C39.0555 26.0504 37.0938 24.5297 34.8654 25.3364L21.3566 31.3195L8.27978 25.5235C5.74708 24.4106 3.63522 25.9833 3.91755 28.7626C4.15251 31.075 4.54658 33.4013 5.0928 35.6936L36.2007 43.1778C38.1425 43.6454 38.713 44.3497 37.9409 46.2469H37.9412Z" fill="#00FFFF"/>
<path fill-rule="evenodd" clip-rule="evenodd" d="M28.3791 0.879047L28.4143 0.87943L28.4491 0.880885L28.4837 0.883029L28.5182 0.886092L28.5522 0.88992L28.5861 0.894668L28.6197 0.900257H28.6198L28.653 0.906613L28.6859 0.913887H28.6861L28.7187 0.921851L28.7512 0.930733L28.7832 0.940151L28.815 0.950489L28.8464 0.961515H28.8465L28.8775 0.973307L28.9081 0.985788L28.9384 0.999188L28.9684 1.0132H28.9685L28.9979 1.0279L29.0269 1.04314H29.0271L29.0557 1.0593L29.0839 1.07599L29.1117 1.09345L29.139 1.11144L29.1659 1.13013H29.166L29.1923 1.14935L29.2182 1.16933L29.2436 1.18985H29.2437L29.2685 1.21091L29.2928 1.2325H29.2929L29.3167 1.25479H29.3169L29.3401 1.2776L29.3629 1.30081L29.385 1.32477H29.3852L29.4067 1.34928L29.4278 1.37416L29.4483 1.39974L29.4682 1.42569L29.4874 1.45204L29.5061 1.47907L29.5241 1.50648L29.5414 1.5342L29.5581 1.56253L29.5743 1.59117L29.5895 1.62034L29.6042 1.64974L29.6181 1.67984L29.6314 1.71016H29.6315L29.6441 1.74079L29.6558 1.7718L29.6669 1.80335L29.6772 1.83513L29.6866 1.86721L29.6955 1.89968L29.7034 1.9323L29.7107 1.96545L29.7171 1.99861L29.7227 2.03237L29.7274 2.0663L29.7312 2.10037L29.7343 2.13483L29.7364 2.16944L29.7379 2.20428L29.7383 2.2395L29.7379 2.27465L29.7364 2.30949L29.7343 2.3441L29.7312 2.37856L29.7274 2.41263L29.7227 2.44655L29.7171 2.48017V2.48032L29.7107 2.51348L29.7034 2.54648V2.54663L29.6955 2.57925L29.6866 2.61172L29.6772 2.6438L29.6669 2.67558L29.6601 2.69442L35.1161 6.74133C35.323 6.61422 35.566 6.54094 35.8265 6.54094C36.5774 6.54094 37.1861 7.14999 37.1861 7.90124C37.1861 8.21518 37.0799 8.50417 36.9011 8.7345L40.828 15.657C40.9295 15.6329 41.0353 15.62 41.1443 15.62C41.8951 15.62 42.504 16.2291 42.504 16.9803C42.504 17.7316 41.8952 18.3406 41.1443 18.3406C40.7442 18.3406 40.3845 18.1678 40.1356 17.8924L36.72 18.4928C36.638 19.1658 36.0652 19.6868 35.3705 19.6868C34.9474 19.6868 34.5697 19.4935 34.3203 19.1904L31.6077 20.3658C31.5057 21.0162 30.9431 21.5135 30.2646 21.5135C29.9846 21.5135 29.724 21.4287 29.5078 21.2834L22.3396 24.8246C22.357 24.9118 22.3664 25.0016 22.3664 25.094C22.3664 25.8452 21.7577 26.4543 21.0068 26.4543C20.2559 26.4543 19.6472 25.8452 19.6472 25.094C19.6472 24.8815 19.6959 24.6806 19.7828 24.5014C18.9892 23.8125 17.8414 22.8898 17.0476 22.2009C16.7278 22.3665 16.6741 22.4409 16.2976 22.4409C15.5467 22.4409 14.938 21.8318 14.938 21.0806C14.938 21.002 14.9447 20.925 14.9575 20.8499L11.2073 19.7924C10.9595 20.126 10.5626 20.342 10.1154 20.342C9.41366 20.342 8.83622 19.81 8.76351 19.1272L2.50029 16.4661C2.25791 16.6905 1.93356 16.8276 1.57738 16.8276C0.826512 16.8276 0.217773 16.2186 0.217773 15.4673C0.217773 14.7161 0.826512 14.1069 1.57738 14.1069L1.59567 14.1071L4.72793 8.2831C4.53162 8.04734 4.41362 7.74404 4.41362 7.41325C4.41362 6.662 5.02235 6.05294 5.77322 6.05294C5.98805 6.05294 6.19109 6.10302 6.37163 6.19169L10.7921 3.18624C10.7685 3.08578 10.756 2.9811 10.756 2.87352C10.756 2.12227 11.3647 1.51322 12.1156 1.51322C12.6997 1.51322 13.1977 1.8816 13.3902 2.39893L19.1066 1.21305C19.1799 0.531104 19.757 0 20.4582 0C21.1103 0 21.655 0.459279 21.7872 1.07216L27.2074 1.54844C27.444 1.14797 27.8798 0.879124 28.3785 0.879124L28.3791 0.879047ZM36.147 9.22371C36.0531 9.24638 35.9556 9.25924 35.8552 9.26123L33.9308 13.2231C34.236 13.4614 34.4368 13.8272 34.4535 14.2404L39.9676 16.2996C39.999 16.2451 40.0343 16.1935 40.0727 16.1441L36.147 9.22371ZM29.0957 3.39551L29.0841 3.40278L29.0558 3.41948L29.0272 3.43563H29.0271L28.998 3.45087L28.9687 3.46557H28.9685L28.9386 3.47959L28.9083 3.49283V3.49299L28.8777 3.50547L28.8467 3.51726H28.8465L28.8151 3.52829L28.7834 3.53862L28.7513 3.54804L28.7189 3.55692L28.6863 3.56489H28.6861L28.6531 3.57209L28.6433 3.57392L28.3788 5.79849L27.9071 9.76431C28.1406 9.88384 28.3352 10.0687 28.4664 10.295L34.4691 7.96847C34.468 7.94619 34.4675 7.92367 34.4675 7.90116C34.4675 7.73898 34.4957 7.58339 34.5478 7.43936L29.0958 3.39536L29.0957 3.39551ZM21.6766 1.96537C21.5202 2.2797 21.2463 2.52489 20.912 2.64319V8.3756C21.0839 8.4364 21.2398 8.53074 21.3718 8.6508L27.1097 2.72773L27.1019 2.7072V2.70705L27.0908 2.67566L27.0805 2.64388L27.0711 2.6118L27.0622 2.57933L27.0543 2.54671V2.54656L27.047 2.51355L27.0406 2.4804V2.48024L27.035 2.44663L27.0335 2.43629L21.6765 1.96545L21.6766 1.96537ZM13.4024 3.31519C13.3843 3.36833 13.3627 3.42001 13.3384 3.46986L19.426 8.77393C19.5795 8.59468 19.7786 8.456 20.0056 8.3756V2.64319C19.7168 2.54112 19.4728 2.3441 19.3109 2.08965L13.4025 3.31526L13.4024 3.31519ZM10.0392 17.4723L11.3733 12.7865C11.0852 12.5371 10.9028 12.1686 10.9028 11.7574C10.9028 11.6239 10.9222 11.4949 10.9579 11.3732L6.61286 8.48349L6.61102 8.48495L10.0392 17.4722L10.0392 17.4723ZM12.2217 13.1172L10.8735 17.852C11.2241 18.0878 11.4588 18.4825 11.4747 18.9328L15.4171 20.0446L15.4623 20.0078L14.9569 18.7893L12.5878 13.0785C12.4835 13.1041 12.3746 13.1176 12.2626 13.1176L12.2218 13.1171L12.2217 13.1172ZM13.6214 11.798L21.7702 17.5792C21.811 17.5364 21.8543 17.4961 21.9004 17.459L19.9392 10.916C19.7484 10.8369 19.5794 10.7157 19.4439 10.5637L13.6127 11.597C13.6189 11.6496 13.6221 11.7031 13.6221 11.7573L13.6214 11.798ZM21.3987 18.4271L13.4479 12.7865L16.3242 19.7204C17.0629 19.7343 17.6577 20.3379 17.6577 21.0805C17.6577 21.2117 17.6393 21.3383 17.6046 21.4581L20.3946 23.8793C20.4753 23.8385 20.5607 23.8056 20.6495 23.7814L21.7999 19.4841C21.5505 19.2375 21.3957 18.8952 21.3957 18.5165C21.3957 18.4864 21.3967 18.4568 21.3987 18.4271V18.4271ZM28.7616 20.6407L23.8196 19.3631C23.5705 19.6762 23.1864 19.877 22.7553 19.877C22.7021 19.877 22.6496 19.8739 22.5979 19.8678L21.5346 23.8396C21.6574 23.8913 21.771 23.9606 21.8722 24.0442L28.7616 20.6407ZM8.98018 18.2336C9.05396 18.1219 9.14373 18.0216 9.24613 17.9362L5.7511 8.77332C5.66554 8.77186 5.58196 8.7626 5.50076 8.74606L2.44809 14.4219C2.74719 14.6714 2.9376 15.0471 2.9376 15.4672C2.9376 15.5328 2.93285 15.5972 2.92397 15.6603L8.98018 18.2335V18.2336ZM39.4896 17.0892L34.1854 15.1084C34.1456 15.1615 34.102 15.2117 34.0552 15.2585L34.9895 17.0206C35.1107 16.9852 35.2386 16.9661 35.3711 16.9661C35.8591 16.9661 36.287 17.2235 36.5268 17.6099L39.4896 17.0892ZM34.0116 18.3402L34.0115 18.3265C34.0115 18.0412 34.0992 17.7767 34.2494 17.558L33.237 15.6486C33.1903 15.6535 33.1429 15.6561 33.0949 15.6561C32.9923 15.6561 32.8923 15.6447 32.7961 15.6231L31.1124 19.0894C31.2402 19.1915 31.3491 19.3161 31.4335 19.4573L34.0117 18.3402H34.0116ZM28.9643 19.7563C29.0169 19.5838 29.1028 19.4261 29.2143 19.2902L27.2095 12.3345C27.1248 12.3296 27.0423 12.3168 26.9626 12.2972L23.7506 17.5897C23.9737 17.8295 24.1111 18.1504 24.1148 18.5028L28.9643 19.7563V19.7563ZM30.0207 18.815C30.0947 18.8016 30.1708 18.7939 30.2486 18.793L32.0254 15.1355C31.8439 14.9043 31.7353 14.6126 31.7353 14.2958C31.7353 13.5552 32.3267 12.9529 33.0627 12.9358L34.9881 8.97171C34.9251 8.92217 34.8667 8.8672 34.8134 8.80755L28.63 11.2043C28.5691 11.5654 28.366 11.8779 28.0805 12.0827L30.0208 18.8149L30.0207 18.815ZM22.756 17.1563C22.8204 17.1563 22.8831 17.1608 22.9451 17.1695L23.8653 15.6534L26.2054 11.7975C26.0324 11.5693 25.9296 11.2849 25.9296 10.9764C25.9296 10.3214 26.3925 9.77457 27.0084 9.64501L27.746 3.44337L27.731 3.43556L27.7024 3.4194L27.7023 3.41925L21.8096 9.50228C21.8154 9.55343 21.8185 9.60566 21.8185 9.65849C21.8185 10.2571 21.432 10.7654 20.8951 10.9474L22.7561 17.1563H22.756ZM11.2776 3.94415L7.00961 6.84569C7.08897 7.01836 7.13344 7.21064 7.13344 7.41325C7.13344 7.51807 7.12165 7.61999 7.09915 7.71793L11.4898 10.6382C11.7094 10.4863 11.9755 10.3971 12.2625 10.3971C12.616 10.3971 12.9378 10.532 13.1796 10.7532L19.0999 9.7039L19.0995 9.69211L12.6896 4.10709C12.5155 4.18834 12.3211 4.2339 12.1162 4.2339C11.7997 4.2339 11.5085 4.12562 11.2776 3.94423V3.94415Z" fill="#00FFFF"/>
<path fill-rule="evenodd" clip-rule="evenodd" d="M3.13019 44.0005L5.81412 44.6874C6.32023 44.8168 6.1765 45.648 5.60977 45.503L2.92584 44.8162C2.70252 44.759 2.54754 44.5257 2.62055 44.3065L2.62071 44.306C2.69372 44.0867 2.9064 43.9434 3.13011 44.0005H3.13019Z" fill="#00FFFF"/>
<path fill-rule="evenodd" clip-rule="evenodd" d="M35.575 37.4195L38.2589 38.1063C38.7964 38.2438 38.6304 39.0694 38.0546 38.922L35.3707 38.2351C35.1473 38.178 34.9924 37.9447 35.0654 37.7254L35.0655 37.7249C35.1386 37.5056 35.3512 37.3623 35.5749 37.4195H35.575Z" fill="#00FFFF"/>
<path fill-rule="evenodd" clip-rule="evenodd" d="M54.6938 18.7408C55.3388 18.7408 55.9044 19.0807 56.2216 19.5911L62.2047 28.401C62.357 28.6808 62.6536 28.8705 62.9944 28.8705C63.319 28.8705 63.6035 28.6983 63.7615 28.4403L69.7906 19.5433C70.1128 19.0595 70.6631 18.7408 71.2877 18.7408C72.2519 18.7408 73.0388 19.5002 73.0837 20.4537L73.0858 28.0576C73.0711 29.0562 72.293 29.8566 71.2877 29.8566C70.9483 29.8566 70.631 29.7624 70.3601 29.5988L65.8236 26.9917L64.5207 28.9226C64.2031 29.4314 63.6383 29.77 62.9945 29.77C62.3563 29.77 61.796 29.4374 61.4769 28.9362L55.4532 20.0581C55.2937 19.8071 55.0131 19.6404 54.6938 19.6404C54.1973 19.6404 53.7948 20.0431 53.7948 20.5399C53.84 23.6026 53.7964 26.7033 53.7952 29.77H52.8958V20.5399C52.8958 19.5463 53.7008 18.7409 54.6938 18.7409V18.7408ZM70.8264 28.8297C70.9612 28.9105 71.1191 28.9571 71.2878 28.9571C71.9339 28.9571 72.1609 28.3718 72.1931 28.1487L72.1853 20.4874C72.1716 20.0145 71.7667 19.6404 71.2878 19.6404C70.9736 19.6404 70.6971 19.8016 70.5365 20.0458L66.3308 26.2454L70.8265 28.8297H70.8264Z" fill="white"/>
<path fill-rule="evenodd" clip-rule="evenodd" d="M78.5071 21.7159C76.3152 21.2915 74.4436 23.562 74.4436 25.7952V25.7953C74.4436 28.0289 76.2702 29.8565 78.5028 29.8565H91.0623C93.239 29.8565 94.8986 28.1557 94.9863 25.9984L95.1271 23.3975C95.2606 20.9275 93.1042 18.9 90.6319 18.9H75.1024V19.7995H90.6319C92.5507 19.7995 94.1343 21.328 94.2239 23.2268C94.2265 23.283 94.1839 24.7589 94.1839 24.8161L78.5071 21.7158L78.5071 21.7159ZM94.1325 25.7952L78.5028 22.7234C76.8458 22.3978 75.4326 24.1057 75.4326 25.7952C75.4326 27.4847 76.8141 28.867 78.5028 28.867H91.0623C92.751 28.867 94.1325 27.4848 94.1325 25.7952Z" fill="white"/>
<path fill-rule="evenodd" clip-rule="evenodd" d="M116.104 26.5131C116.628 26.8273 116.98 27.4014 116.98 28.0576C116.98 29.0392 116.194 29.8372 115.217 29.8562L96.8525 29.8566V29.7477V28.9568V10.0862H97.752V28.5053L116.498 19.0966L116.896 19.9034L110.426 23.1508C112.318 24.2719 114.213 25.3967 116.104 26.5132V26.5131ZM109.471 23.6303L98.8584 28.9567L115.195 28.957C115.685 28.9497 116.08 28.5498 116.08 28.0576C116.08 27.7508 115.927 27.4799 115.692 27.3176L109.471 23.6304L109.471 23.6303Z" fill="white"/>
<path fill-rule="evenodd" clip-rule="evenodd" d="M123.078 29.8567H138.608V28.9572H128.49L137.624 24.0862C138.487 23.6261 139.074 22.7174 139.074 21.6714C139.074 20.1609 137.85 18.9365 136.34 18.9365H123.078C120.606 18.9365 118.583 20.9604 118.583 23.434V25.3592C118.583 27.8328 120.606 29.8567 123.078 29.8567ZM126.577 28.9572H123.078C121.102 28.9572 119.482 27.3363 119.482 25.3592V23.434C119.482 21.4569 121.102 19.836 123.078 19.836H136.34C137.358 19.8497 138.174 20.6463 138.174 21.6714C138.174 22.396 137.755 23.0225 137.145 23.3209L126.577 28.9572H126.577Z" fill="white"/>
<path fill-rule="evenodd" clip-rule="evenodd" d="M162.243 24.7583C163.402 24.7583 164.342 25.6978 164.342 26.8577C164.342 28.0177 163.403 28.9573 162.243 28.9573C156.427 28.9573 150.611 28.9543 144.795 28.957V29.8569C150.611 29.8567 156.427 29.8569 162.243 29.8569C163.899 29.8569 165.241 28.5142 165.241 26.8578C165.241 25.2016 163.899 23.8589 162.243 23.8589C157.419 23.8589 152.594 23.8589 147.77 23.8589C146.621 23.8467 145.694 22.9119 145.694 21.7596C145.694 20.6089 146.619 19.675 147.765 19.6605C153.59 19.6605 159.419 19.5324 165.245 19.5324V18.6324L147.645 18.7644C146.058 18.8414 144.795 20.1529 144.795 21.7596C144.795 23.4084 146.125 24.7462 147.77 24.7584C152.594 24.7606 157.419 24.7583 162.243 24.7583L162.243 24.7583Z" fill="white"/>
<path fill-rule="evenodd" clip-rule="evenodd" d="M172.33 10.1779H173.229V18.6325H177.805V19.5324H173.229V27.0555C173.229 28.106 173.993 28.9573 175.064 28.9573C176.673 28.9573 178.283 28.9532 179.893 28.957V29.8569C178.283 29.8561 176.673 29.8569 175.063 29.8569C173.528 29.8569 172.347 28.6326 172.33 27.1092V19.5324H168.051V18.6325H172.33V10.1779H172.33Z" fill="white"/>
<path fill-rule="evenodd" clip-rule="evenodd" d="M185.794 29.8567H201.324V28.9572H191.206L200.34 24.0862C201.202 23.6261 201.789 22.7174 201.789 21.6714C201.789 20.1609 200.566 18.9365 199.056 18.9365H185.794C183.322 18.9365 181.299 20.9604 181.299 23.434V25.3592C181.299 27.8328 183.322 29.8567 185.794 29.8567ZM189.293 28.9572H185.794C183.818 28.9572 182.198 27.3363 182.198 25.3592V23.434C182.198 21.4569 183.818 19.836 185.794 19.836H199.056C200.074 19.8497 200.89 20.6463 200.89 21.6714C200.89 22.396 200.47 23.0225 199.861 23.3209L189.293 28.9572Z" fill="white"/>
<path fill-rule="evenodd" clip-rule="evenodd" d="M227.681 18.7408C228.326 18.7408 228.892 19.0807 229.209 19.5911L235.192 28.401C235.345 28.6808 235.641 28.8705 235.982 28.8705C236.307 28.8705 236.591 28.6983 236.749 28.4403L242.778 19.5433C243.1 19.0595 243.651 18.7408 244.275 18.7408C245.239 18.7408 246.026 19.5002 246.071 20.4537L246.073 28.0576C246.059 29.0562 245.281 29.8566 244.275 29.8566C243.936 29.8566 243.619 29.7624 243.348 29.5988L238.811 26.9917L237.508 28.9226C237.191 29.4314 236.626 29.77 235.982 29.77C235.344 29.77 234.784 29.4374 234.464 28.9362L228.441 20.0581C228.281 19.8071 228.001 19.6404 227.681 19.6404C227.185 19.6404 226.782 20.0431 226.782 20.5399C226.828 23.6026 226.784 26.7033 226.783 29.77H225.883V20.5399C225.883 19.5463 226.688 18.7409 227.681 18.7409V18.7408ZM243.814 28.8297C243.949 28.9105 244.107 28.9571 244.275 28.9571C244.921 28.9571 245.148 28.3718 245.181 28.1487L245.173 20.4874C245.159 20.0145 244.754 19.6404 244.275 19.6404C243.961 19.6404 243.685 19.8016 243.524 20.0458L239.318 26.2454L243.814 28.8297H243.814Z" fill="white"/>
<path fill-rule="evenodd" clip-rule="evenodd" d="M207.094 21.7159C204.902 21.2915 203.03 23.562 203.03 25.7952V25.7953C203.03 28.0289 204.857 29.8565 207.089 29.8565H219.649C221.826 29.8565 223.485 28.1557 223.573 25.9984L223.714 23.3975C223.847 20.9275 221.691 18.9 219.218 18.9H203.689V19.7995H219.218C221.137 19.7995 222.721 21.328 222.811 23.2268C222.813 23.283 222.771 24.7589 222.771 24.8161L207.094 21.7158L207.094 21.7159ZM222.719 25.7952L207.089 22.7234C205.432 22.3978 204.019 24.1057 204.019 25.7952C204.019 27.4847 205.401 28.867 207.089 28.867H219.649C221.338 28.867 222.719 27.4848 222.719 25.7952H222.719Z" fill="white"/>
<path d="M64.9634 50.9788C65.1182 50.9788 65.2542 51.0355 65.3679 51.149C65.4817 51.2624 65.5386 51.3979 65.5386 51.5493C65.5386 51.71 65.4817 51.8456 65.3679 51.9528C65.2542 52.0599 65.1182 52.1134 64.9634 52.1134H55.8082C55.3943 52.1134 55.0055 52.0346 54.642 51.8771C54.2755 51.7195 53.9594 51.5083 53.6876 51.2372C53.4158 50.9661 53.2009 50.6477 53.0461 50.2853C52.8881 49.9228 52.8091 49.532 52.8091 49.1223V39.9656C52.8091 39.5558 52.8881 39.1682 53.0461 38.8088C53.2009 38.4463 53.4158 38.1311 53.6876 37.86C53.9594 37.5889 54.2755 37.3777 54.642 37.2201C55.0055 37.0626 55.3941 36.9838 55.8082 36.9838H64.9634C65.1182 36.9838 65.251 37.0373 65.3584 37.1477C65.4658 37.2549 65.5196 37.3905 65.5196 37.5512C65.5196 37.7056 65.466 37.8381 65.3584 37.9515C65.251 38.0618 65.1182 38.1186 64.9634 38.1186H55.8082C55.5491 38.1186 55.3057 38.169 55.0814 38.2667C54.8569 38.3645 54.661 38.4969 54.4935 38.6671C54.326 38.8373 54.1933 39.0327 54.0953 39.2597C53.9974 39.4834 53.9467 39.7199 53.9467 39.972V43.83H64.7232C64.8844 43.83 65.0171 43.8868 65.1277 44.0002C65.2351 44.1136 65.2889 44.2461 65.2889 44.391C65.2889 44.5454 65.2351 44.681 65.1277 44.7944C65.0171 44.9079 64.8844 44.9647 64.7232 44.9647H53.9467V49.1223C53.9467 49.3807 53.9972 49.6234 54.0953 49.8472C54.1933 50.0709 54.326 50.2665 54.4935 50.4335C54.661 50.6006 54.8569 50.733 55.0814 50.8307C55.3057 50.9285 55.5491 50.9789 55.8082 50.9789H64.9634V50.9788ZM79.3757 37.5479C79.3757 37.3872 79.4294 37.2547 79.5368 37.1444C79.6443 37.0373 79.777 36.9838 79.9319 36.9838C80.0899 36.9838 80.2259 37.0373 80.3333 37.1444C80.4407 37.2516 80.4944 37.3872 80.4944 37.5479V49.1221C80.4944 49.5318 80.4155 49.9228 80.2574 50.2851C80.0994 50.6476 79.8877 50.966 79.6159 51.2371C79.3441 51.5082 79.028 51.7194 78.6646 51.8769C78.3043 52.0345 77.9188 52.1133 77.5048 52.1133H72.0028C71.5887 52.1133 71.2001 52.0345 70.8366 51.8769C70.4732 51.7194 70.154 51.5082 69.8822 51.2371C69.6104 50.966 69.3988 50.6476 69.2407 50.2851C69.0827 49.9226 69.0037 49.535 69.0037 49.1221V45.2704C69.0037 44.8575 69.0827 44.4697 69.2407 44.1074C69.3986 43.7449 69.6104 43.4265 69.8822 43.1554C70.154 42.8843 70.4732 42.6731 70.8366 42.5156C71.2001 42.358 71.5919 42.2792 72.0028 42.2792H79.3757V37.5479ZM70.1415 49.1221C70.1415 49.3806 70.192 49.6232 70.29 49.8471C70.388 50.0708 70.5207 50.2663 70.6882 50.4334C70.8558 50.6005 71.0517 50.7328 71.2761 50.8306C71.5004 50.9284 71.7438 50.9788 72.003 50.9788H77.505C77.7641 50.9788 78.0075 50.9284 78.2349 50.8306C78.4657 50.7328 78.6616 50.6005 78.8291 50.4334C78.9966 50.2663 79.1293 50.0709 79.2273 49.8471C79.3254 49.6232 79.3759 49.3806 79.3759 49.1221V43.4137H72.003C71.7438 43.4137 71.5004 43.4641 71.2761 43.5619C71.0517 43.6595 70.8558 43.792 70.6882 43.9591C70.5207 44.1261 70.388 44.3215 70.29 44.5454C70.192 44.7693 70.1415 45.0119 70.1415 45.2704V49.1221ZM87.1358 52.1133C86.7217 52.1133 86.3331 52.0345 85.9696 51.8769C85.6062 51.7194 85.287 51.5082 85.0152 51.2371C84.7434 50.966 84.5285 50.6476 84.3737 50.2851C84.2157 49.9226 84.1367 49.535 84.1367 49.1221V42.8433C84.1367 42.6952 84.1905 42.5628 84.2979 42.4494C84.4054 42.336 84.5412 42.2792 84.7024 42.2792C84.8541 42.2792 84.99 42.336 85.1038 42.4494C85.2175 42.5628 85.2745 42.6953 85.2745 42.8433V49.1221C85.2745 49.3806 85.325 49.6232 85.423 49.8471C85.521 50.0708 85.6537 50.2663 85.8212 50.4334C85.9888 50.6005 86.1847 50.7328 86.4091 50.8306C86.6334 50.9284 86.8768 50.9788 87.136 50.9788H94.3192C94.3192 50.1277 94.3192 49.2452 94.3192 48.3279C94.3192 47.9402 94.3192 47.5241 94.3192 47.0827C94.3192 46.6383 94.3192 46.1813 94.3192 45.7148C94.3192 45.2483 94.3192 44.7724 94.3192 44.287C94.3192 43.8046 94.3192 43.3287 94.3192 42.8622C94.3192 42.7141 94.3729 42.5817 94.4772 42.4682C94.5815 42.3547 94.7111 42.298 94.8659 42.298C95.0238 42.298 95.1598 42.3547 95.2704 42.4682C95.381 42.5816 95.4379 42.7141 95.4379 42.8622V51.5492C95.4379 51.6973 95.381 51.8297 95.2704 51.9431C95.1598 52.0565 95.0238 52.1133 94.8627 52.1133H87.136H87.1358ZM110.084 42.279C110.239 42.279 110.372 42.3326 110.482 42.4397C110.593 42.5469 110.647 42.6825 110.647 42.84C110.647 42.9945 110.593 43.1301 110.482 43.2435C110.372 43.3569 110.239 43.4137 110.084 43.4137H102.048C101.788 43.4137 101.545 43.4641 101.321 43.5619C101.093 43.6595 100.894 43.7951 100.723 43.9622C100.55 44.1324 100.414 44.3309 100.316 44.5579C100.218 44.7881 100.167 45.0307 100.167 45.2891V49.1031C100.167 49.3615 100.218 49.6041 100.316 49.8343C100.414 50.0613 100.55 50.2598 100.717 50.43C100.888 50.5971 101.087 50.7326 101.314 50.8303C101.545 50.9281 101.788 50.9785 102.048 50.9785H110.046C110.207 50.9785 110.34 51.0353 110.447 51.1456C110.558 51.2559 110.612 51.3915 110.612 51.549C110.612 51.7097 110.558 51.8453 110.447 51.9525C110.34 52.0597 110.207 52.1132 110.046 52.1132H102.048C101.627 52.1132 101.232 52.0343 100.866 51.8768C100.499 51.7192 100.18 51.508 99.9081 51.2369C99.6362 50.9658 99.4214 50.6475 99.2665 50.2787C99.1086 49.9131 99.0295 49.5222 99.0295 49.1031V45.2891C99.0295 44.8699 99.1086 44.4791 99.2665 44.1135C99.4214 43.7447 99.6362 43.4264 99.9081 43.1553C100.18 42.8842 100.499 42.673 100.866 42.5154C101.232 42.3579 101.627 42.279 102.048 42.279H110.084ZM122.616 42.279C123.024 42.279 123.406 42.3547 123.763 42.5092C124.12 42.6636 124.433 42.8716 124.699 43.1332C124.964 43.3949 125.173 43.7038 125.328 44.06C125.482 44.4193 125.558 44.8007 125.558 45.2073V49.1852C125.558 49.5918 125.482 49.9732 125.328 50.3325C125.173 50.6887 124.964 50.9975 124.699 51.2593C124.433 51.521 124.124 51.7289 123.766 51.8833C123.412 52.0377 123.033 52.1134 122.632 52.1134H116.738C116.33 52.1134 115.948 52.0377 115.588 51.8833C115.231 51.7289 114.921 51.5208 114.659 51.2561C114.396 50.9914 114.188 50.6793 114.033 50.3231C113.878 49.9638 113.802 49.5855 113.802 49.1852C113.802 48.7817 113.878 48.4003 114.033 48.0409C114.188 47.6847 114.399 47.3728 114.668 47.1079C114.937 46.8432 115.25 46.6352 115.607 46.4806C115.967 46.3262 116.349 46.2505 116.757 46.2505H124.459V45.2072C124.459 44.9519 124.408 44.7155 124.31 44.4949C124.212 44.2712 124.079 44.0788 123.912 43.9118C123.744 43.7447 123.551 43.6155 123.33 43.5179C123.106 43.4234 122.869 43.376 122.616 43.376H114.472C114.311 43.376 114.175 43.3223 114.065 43.2152C113.954 43.108 113.897 42.9757 113.897 42.8213C113.897 42.6762 113.954 42.547 114.065 42.4398C114.175 42.3327 114.311 42.2792 114.472 42.2792H122.616L122.616 42.279ZM114.921 49.185C114.921 49.4403 114.968 49.6736 115.063 49.8943C115.161 50.1118 115.291 50.304 115.452 50.4649C115.616 50.6288 115.809 50.758 116.027 50.8557C116.245 50.9502 116.482 50.9976 116.735 50.9976H122.635C122.888 50.9976 123.125 50.9503 123.346 50.8557C123.57 50.758 123.763 50.6287 123.927 50.4649C124.089 50.304 124.218 50.1118 124.316 49.8943C124.411 49.6737 124.458 49.4405 124.458 49.185V47.3475H116.754C116.501 47.3475 116.264 47.3978 116.043 47.4956C115.818 47.5932 115.626 47.7257 115.458 47.8928C115.29 48.0599 115.161 48.2521 115.063 48.4759C114.968 48.6965 114.921 48.933 114.921 49.185ZM134.175 50.9786C134.333 50.9786 134.469 51.0354 134.576 51.1488C134.683 51.2623 134.737 51.3977 134.737 51.5492C134.737 51.7098 134.683 51.8455 134.576 51.9526C134.469 52.0598 134.333 52.1133 134.175 52.1133H132.165C131.751 52.1133 131.362 52.0345 130.999 51.8769C130.632 51.7194 130.316 51.5082 130.044 51.2371C129.772 50.966 129.557 50.6476 129.403 50.2851C129.245 49.9226 129.166 49.5318 129.166 49.1221V37.5479C129.166 37.3872 129.219 37.2516 129.327 37.1444C129.434 37.0373 129.57 36.9838 129.731 36.9838C129.883 36.9838 130.019 37.0373 130.133 37.1444C130.246 37.2547 130.303 37.3872 130.303 37.5479V42.2602H134.156C134.317 42.2602 134.45 42.3138 134.557 42.4209C134.664 42.5281 134.718 42.6637 134.718 42.8213C134.718 42.9757 134.664 43.108 134.557 43.2152C134.45 43.3223 134.317 43.376 134.156 43.376H130.303V49.1221C130.303 49.3806 130.354 49.6232 130.452 49.8471C130.55 50.0708 130.683 50.2663 130.85 50.4334C131.018 50.6005 131.214 50.7328 131.438 50.8306C131.662 50.9284 131.906 50.9788 132.165 50.9788H134.175L134.175 50.9786ZM138.594 42.279C138.746 42.279 138.882 42.3326 138.996 42.4397C139.109 42.5469 139.166 42.6761 139.166 42.8242V51.549C139.166 51.7097 139.109 51.8453 138.996 51.9525C138.882 52.0597 138.746 52.1132 138.594 52.1132C138.433 52.1132 138.297 52.0597 138.19 51.9525C138.082 51.8453 138.028 51.7097 138.028 51.549V42.8242C138.028 42.6761 138.082 42.5469 138.19 42.4397C138.297 42.3326 138.433 42.279 138.594 42.279ZM138.028 40.4036C138.028 40.2428 138.082 40.1073 138.19 40.0001C138.297 39.893 138.433 39.8393 138.594 39.8393C138.746 39.8393 138.882 39.893 138.996 40.0001C139.109 40.1073 139.166 40.2428 139.166 40.4036V41.0686C139.166 41.2199 139.109 41.3554 138.996 41.4658C138.882 41.5761 138.746 41.6298 138.594 41.6298C138.433 41.6298 138.297 41.5761 138.19 41.4658C138.082 41.3556 138.028 41.2199 138.028 41.0686V40.4036ZM153.117 42.279C153.528 42.279 153.917 42.3579 154.277 42.5154C154.64 42.673 154.956 42.8843 155.228 43.1553C155.5 43.4264 155.712 43.7447 155.87 44.1072C156.028 44.4697 156.107 44.8574 156.107 45.2702V49.122C156.107 49.5348 156.028 49.9226 155.87 50.285C155.712 50.6475 155.5 50.9658 155.228 51.2369C154.956 51.508 154.64 51.7192 154.277 51.8768C153.917 52.0343 153.528 52.1132 153.117 52.1132H145.947C145.536 52.1132 145.144 52.0343 144.78 51.8768C144.417 51.7192 144.098 51.508 143.826 51.2369C143.554 50.9658 143.342 50.6475 143.184 50.285C143.026 49.9225 142.947 49.5348 142.947 49.122V45.2702C142.947 44.8574 143.026 44.4696 143.184 44.1072C143.342 43.7447 143.554 43.4264 143.826 43.1553C144.098 42.8842 144.417 42.673 144.78 42.5154C145.144 42.3579 145.536 42.279 145.947 42.279H153.117ZM144.085 49.1221C144.085 49.3806 144.136 49.6232 144.234 49.8471C144.332 50.0708 144.464 50.2663 144.632 50.4334C144.799 50.6005 144.995 50.7328 145.22 50.8306C145.444 50.9284 145.688 50.9788 145.947 50.9788H153.117C153.37 50.9788 153.61 50.9284 153.835 50.8306C154.059 50.7328 154.255 50.6005 154.422 50.4334C154.59 50.2663 154.723 50.0709 154.821 49.8471C154.919 49.6232 154.969 49.3806 154.969 49.1221V45.2704C154.969 45.0119 154.919 44.7693 154.821 44.5454C154.723 44.3217 154.59 44.1261 154.422 43.9591C154.255 43.792 154.059 43.6596 153.835 43.5619C153.61 43.4641 153.37 43.4137 153.117 43.4137H145.947C145.688 43.4137 145.444 43.4641 145.22 43.5619C144.995 43.6595 144.799 43.792 144.632 43.9591C144.464 44.1261 144.332 44.3215 144.234 44.5454C144.136 44.7693 144.085 45.0119 144.085 45.2704V49.1221ZM167.485 42.279C167.899 42.279 168.288 42.3579 168.658 42.5154C169.024 42.6698 169.34 42.8843 169.609 43.1553C169.877 43.4264 170.092 43.7416 170.247 44.1072C170.405 44.4697 170.484 44.8574 170.484 45.2702V51.549C170.484 51.7097 170.427 51.8422 170.317 51.9494C170.206 52.0597 170.07 52.1133 169.912 52.1133C169.757 52.1133 169.628 52.0598 169.524 51.9494C169.419 51.8422 169.366 51.7098 169.366 51.549V45.2702C169.366 45.0118 169.315 44.7691 169.217 44.5453C169.119 44.3215 168.983 44.126 168.816 43.9589C168.645 43.7919 168.446 43.6595 168.218 43.5617C167.988 43.464 167.744 43.4136 167.485 43.4136H160.7V51.549C160.7 51.7097 160.643 51.8422 160.53 51.9494C160.416 52.0597 160.28 52.1133 160.128 52.1133C159.967 52.1133 159.831 52.0598 159.724 51.9494C159.616 51.8422 159.562 51.7098 159.562 51.549V42.8399C159.562 42.6949 159.616 42.5657 159.724 42.4585C159.831 42.3513 159.967 42.2914 160.128 42.2789H167.485L167.485 42.279Z" fill="white"/>
</svg>
