<svg width="343" height="69" viewBox="0 0 343 69" fill="none" xmlns="http://www.w3.org/2000/svg">
<path fill-rule="evenodd" clip-rule="evenodd" d="M52.8196 50.4056C49.369 57.0266 44.0887 62.7738 35.8785 66.4615C35.2039 66.7788 30.1652 68.7748 29.7341 68.6602C29.2899 68.7784 24.2687 66.7808 23.5898 66.4615C16.1051 63.0992 11.0548 58.0253 7.60633 52.1384C6.1292 51.7343 5.06918 50.6334 5.06918 49.3384L5.07099 49.2532L7.67825 49.765L7.72087 49.7723C7.92608 50.1007 8.35683 50.3268 8.85483 50.3268C9.55163 50.3268 10.1167 49.8841 10.1167 49.3383C10.1167 48.7925 9.55163 48.3498 8.85483 48.3498C8.59986 48.3498 8.36248 48.4093 8.16409 48.5112C8.13831 48.5038 8.1121 48.4977 8.08536 48.4924L5.48737 47.9824C6.11577 47.0265 7.38781 46.3731 8.85483 46.3731C10.9454 46.3731 12.6405 47.7005 12.6405 49.3384C12.6405 49.7972 12.5075 50.2317 12.2697 50.6196C15.2901 55.7281 19.643 60.1308 26.1008 63.0319L26.1634 63.0606C27.0671 63.4682 28.5134 64.0622 29.7292 64.4815C30.9447 64.063 32.3868 63.4729 33.2973 63.0637L33.3674 63.0316C39.8615 60.1148 44.2271 55.6793 47.249 50.5342C41.9996 49.5454 2.97153 42.1786 2.98974 42.2224C0.812818 36.113 -0.299197 29.5091 0.0697679 23.1657C0.142964 21.9071 0.581396 20.7246 2.59627 20.7246C4.00351 20.7246 26.5202 28.7237 29.7339 29.8226C32.9966 28.7094 55.451 20.7246 56.8715 20.7246C58.8615 20.7246 59.3128 21.8902 59.3947 23.1344C59.7591 28.6851 58.8801 34.7581 57.0676 40.461C57.4738 40.9335 57.7111 41.5026 57.7111 42.1152C57.7111 43.7531 56.0164 45.0805 53.9255 45.0805C51.8345 45.0805 50.1398 43.7531 50.1398 42.1152L50.14 42.0798L52.8317 42.6082C53.0495 42.9043 53.4578 43.1036 53.9255 43.1036C54.6223 43.1036 55.1873 42.6609 55.1873 42.1151C55.1873 41.5693 54.6222 41.1267 53.9255 41.1267C53.6425 41.1267 53.3816 41.1994 53.1711 41.3226L50.5292 40.8038C50.8883 40.2345 51.4737 39.7684 52.1934 39.4778C53.084 36.679 53.7215 33.8018 54.0638 30.9518C54.3709 28.393 51.64 26.7356 48.5377 27.6148L29.7315 34.1359L11.5267 27.8188C8.00077 26.6058 5.06076 28.3199 5.4538 31.3491C5.7809 33.8694 6.3295 36.405 7.08991 38.9034L50.3967 47.0606C53.0998 47.5703 53.8941 48.3378 52.8192 50.4056H52.8196Z" fill="#00FFFF"/>
<path fill-rule="evenodd" clip-rule="evenodd" d="M39.5074 0.958093L39.5564 0.958511L39.6048 0.960096L39.6531 0.962433L39.701 0.965771L39.7485 0.969944L39.7957 0.975119L39.8423 0.981211H39.8425L39.8887 0.988138L39.9346 0.996067H39.9348L39.9802 1.00475L40.0254 1.01443L40.07 1.02469L40.1142 1.03596L40.1579 1.04798H40.1581L40.2013 1.06083L40.2439 1.07443L40.2861 1.08904L40.3277 1.10431H40.328L40.3689 1.12034L40.4092 1.13694H40.4095L40.4493 1.15455L40.4886 1.17275L40.5273 1.19177L40.5653 1.21139L40.6027 1.23175H40.6029L40.6395 1.2527L40.6756 1.27448L40.7109 1.29685H40.7111L40.7456 1.3198L40.7794 1.34333H40.7796L40.8127 1.36762H40.8129L40.8452 1.39249L40.877 1.41778L40.9078 1.4439H40.908L40.938 1.47061L40.9673 1.49773L40.9959 1.52561L41.0236 1.5539L41.0503 1.58261L41.0763 1.61207L41.1014 1.64195L41.1255 1.67216L41.1488 1.70304L41.1713 1.73425L41.1925 1.76605L41.2129 1.79809L41.2323 1.83089L41.2507 1.86394H41.2509L41.2684 1.89733L41.2848 1.93113L41.3002 1.96551L41.3146 2.00015L41.3277 2.03511L41.34 2.0705L41.3511 2.10605L41.3612 2.14219L41.3701 2.17833L41.3779 2.21513L41.3845 2.2521L41.3898 2.28924L41.394 2.3268L41.397 2.36452L41.399 2.40249L41.3996 2.44089L41.399 2.47919L41.397 2.51717L41.394 2.55489L41.3898 2.59244L41.3845 2.62958L41.3779 2.66655L41.3701 2.70319V2.70336L41.3612 2.7395L41.3511 2.77547V2.77563L41.34 2.81119L41.3277 2.84657L41.3146 2.88154L41.3002 2.91618L41.2908 2.93671L48.8863 7.34753C49.1743 7.20899 49.5127 7.12912 49.8753 7.12912C50.9206 7.12912 51.7681 7.79294 51.7681 8.61174C51.7681 8.95392 51.6202 9.26889 51.3713 9.51993L56.838 17.0649C56.9793 17.0386 57.1267 17.0246 57.2784 17.0246C58.3237 17.0246 59.1713 17.6884 59.1713 18.5072C59.1713 19.326 58.3238 19.9899 57.2784 19.9899C56.7214 19.9899 56.2207 19.8015 55.8741 19.5014L51.1191 20.1558C51.005 20.8892 50.2075 21.4571 49.2404 21.4571C48.6515 21.4571 48.1257 21.2464 47.7784 20.9161L44.0022 22.1971C43.8601 22.906 43.0769 23.4481 42.1323 23.4481C41.7424 23.4481 41.3798 23.3556 41.0787 23.1972L31.0996 27.0569C31.1238 27.1519 31.1369 27.2498 31.1369 27.3505C31.1369 28.1693 30.2894 28.8331 29.2441 28.8331C28.1988 28.8331 27.3513 28.1693 27.3513 27.3505C27.3513 27.119 27.4192 26.9 27.5401 26.7046C26.4352 25.9538 24.8374 24.9482 23.7323 24.1973C23.2871 24.3778 23.2124 24.4588 22.6882 24.4588C21.6429 24.4588 20.7954 23.795 20.7954 22.9762C20.7954 22.8906 20.8048 22.8066 20.8227 22.7248L15.6018 21.5722C15.2568 21.9357 14.7043 22.1712 14.0817 22.1712C13.1048 22.1712 12.3009 21.5914 12.1997 20.8471L3.48036 17.9468C3.14293 18.1913 2.69139 18.3408 2.19553 18.3408C1.15022 18.3408 0.302765 17.677 0.302765 16.8582C0.302765 16.0394 1.15022 15.3755 2.19553 15.3755L2.221 15.3756L6.58156 9.02794C6.30827 8.77098 6.14398 8.4404 6.14398 8.07987C6.14398 7.26106 6.99144 6.59724 8.03675 6.59724C8.33582 6.59724 8.61849 6.65182 8.86983 6.74847L15.0238 3.47275C14.9909 3.36326 14.9735 3.24917 14.9735 3.13191C14.9735 2.31311 15.8209 1.64929 16.8662 1.64929C17.6794 1.64929 18.3727 2.0508 18.6407 2.61464L26.5987 1.32214C26.7009 0.578862 27.5042 0 28.4804 0C29.3881 0 30.1465 0.500579 30.3305 1.16857L37.8762 1.68768C38.2056 1.2512 38.8123 0.958177 39.5066 0.958177L39.5074 0.958093ZM50.3214 10.0531C50.1907 10.0778 50.055 10.0919 49.9152 10.094L47.2362 14.4121C47.661 14.6719 47.9406 15.0706 47.9638 15.5209L55.6403 17.7653C55.6839 17.706 55.7332 17.6496 55.7867 17.5959L50.3214 10.0531ZM40.505 3.70084L40.4888 3.70877L40.4495 3.72697L40.4097 3.74458H40.4095L40.3691 3.76118L40.3282 3.77721H40.328L40.2863 3.79248L40.2441 3.80692V3.80709L40.2015 3.82069L40.1583 3.83354H40.1581L40.1144 3.84556L40.0702 3.85683L40.0256 3.86709L39.9804 3.87677L39.935 3.88545H39.9348L39.8889 3.8933L39.8752 3.8953L39.507 6.31991L38.8504 10.6423C39.1755 10.7726 39.4463 10.9741 39.6289 11.2208L47.9855 8.68502C47.9841 8.66073 47.9833 8.63619 47.9833 8.61166C47.9833 8.43489 48.0226 8.26531 48.0951 8.10833L40.5051 3.70068L40.505 3.70084ZM30.1766 2.14211C29.9588 2.4847 29.5775 2.75193 29.1121 2.88087V9.12876C29.3514 9.19503 29.5684 9.29785 29.7523 9.42871L37.7402 2.97301L37.7293 2.95064V2.95048L37.714 2.91626L37.6996 2.88162L37.6865 2.84666L37.6741 2.81127L37.6631 2.77572V2.77555L37.6529 2.73958L37.6441 2.70344V2.70328L37.6362 2.66664L37.6342 2.65537L30.1765 2.14219L30.1766 2.14211ZM18.6577 3.6133C18.6324 3.67122 18.6024 3.72755 18.5686 3.78188L27.0434 9.56291C27.2571 9.36753 27.5343 9.21639 27.8503 9.12876V2.88087C27.4482 2.76962 27.1085 2.55489 26.8832 2.27756L18.6578 3.61338L18.6577 3.6133ZM13.9757 19.0434L15.8328 13.9363C15.4318 13.6645 15.1779 13.2628 15.1779 12.8147C15.1779 12.6692 15.2049 12.5286 15.2546 12.396L9.20565 9.24635L9.20309 9.24794L13.9756 19.0434L13.9757 19.0434ZM17.014 14.2967L15.1371 19.4573C15.6252 19.7144 15.952 20.1445 15.974 20.6353L21.4625 21.8471L21.5253 21.807L20.8217 20.4789L17.5236 14.2546C17.3785 14.2824 17.2269 14.2972 17.0709 14.2972L17.0141 14.2966L17.014 14.2967ZM18.9626 12.8589L30.3069 19.16C30.3637 19.1133 30.424 19.0694 30.4881 19.0289L27.7579 11.8976C27.4922 11.8113 27.2569 11.6793 27.0683 11.5136L18.9505 12.6398C18.9591 12.6972 18.9636 12.7555 18.9636 12.8146L18.9626 12.8589ZM29.7897 20.0842L18.7211 13.9363L22.7252 21.4937C23.7536 21.5089 24.5817 22.1668 24.5817 22.9761C24.5817 23.1191 24.556 23.2571 24.5077 23.3877L28.3918 26.0266C28.5041 25.9821 28.623 25.9463 28.7466 25.9199L30.3482 21.2362C30.001 20.9674 29.7854 20.5943 29.7854 20.1816C29.7854 20.1488 29.7869 20.1165 29.7897 20.0841V20.0842ZM40.04 22.4968L33.1599 21.1043C32.8131 21.4455 32.2784 21.6643 31.6782 21.6643C31.6043 21.6643 31.5311 21.661 31.4592 21.6544L29.9789 25.9834C30.1498 26.0397 30.308 26.1152 30.4489 26.2064L40.04 22.4968ZM12.5013 19.8733C12.604 19.7515 12.729 19.6422 12.8715 19.549L8.00596 9.56224C7.88684 9.56065 7.7705 9.55056 7.65745 9.53253L3.4077 15.7187C3.82407 15.9907 4.08916 16.4002 4.08916 16.858C4.08916 16.9295 4.08255 16.9997 4.07019 17.0685L12.5013 19.8731V19.8733ZM54.9748 18.6259L47.5906 16.4669C47.5353 16.5249 47.4745 16.5796 47.4094 16.6306L48.71 18.5511C48.8787 18.5126 49.0569 18.4918 49.2413 18.4918C49.9207 18.4918 50.5163 18.7723 50.8502 19.1934L54.9748 18.6259ZM47.3487 19.9894L47.3485 19.9745C47.3485 19.6635 47.4706 19.3753 47.6797 19.1368L46.2704 17.0558C46.2053 17.0612 46.1393 17.0639 46.0725 17.0639C45.9297 17.0639 45.7904 17.0515 45.6566 17.0279L43.3126 20.806C43.4905 20.9172 43.6421 21.0531 43.7596 21.2069L47.3488 19.9894H47.3487ZM40.3221 21.5329C40.3953 21.3449 40.5149 21.1729 40.6702 21.0248L37.8791 13.4437C37.7613 13.4383 37.6464 13.4243 37.5354 13.403L33.0638 19.1715C33.3745 19.4328 33.5658 19.7825 33.5709 20.1666L40.3221 21.5328V21.5329ZM41.7927 20.5069C41.8958 20.4923 42.0017 20.4839 42.11 20.4829L44.5836 16.4966C44.3309 16.2445 44.1798 15.9266 44.1798 15.5813C44.1798 14.7741 45.003 14.1176 46.0277 14.099L48.7081 9.77848C48.6203 9.72448 48.539 9.66456 48.4649 9.59955L39.8567 12.2118C39.7719 12.6054 39.4892 12.9459 39.0917 13.1692L41.7928 20.5068L41.7927 20.5069ZM31.6793 18.699C31.7689 18.699 31.8561 18.7039 31.9424 18.7135L33.2235 17.061L36.4813 12.8583C36.2405 12.6096 36.0974 12.2997 36.0974 11.9634C36.0974 11.2495 36.7418 10.6535 37.5992 10.5123L38.6261 3.75301L38.6052 3.74449L38.5654 3.72688L38.5652 3.72672L30.3617 10.3568C30.3698 10.4125 30.3741 10.4694 30.3741 10.527C30.3741 11.1794 29.8361 11.7335 29.0885 11.9318L31.6794 18.699H31.6793ZM15.6997 4.29882L9.75798 7.46128C9.86847 7.64948 9.93038 7.85904 9.93038 8.07987C9.93038 8.19412 9.91396 8.3052 9.88264 8.41194L15.9951 11.5948C16.3008 11.4293 16.6713 11.332 17.0708 11.332C17.5629 11.332 18.0108 11.4791 18.3475 11.7201L26.5894 10.5765L26.5889 10.5636L17.6654 4.47642C17.4229 4.56496 17.1523 4.61462 16.8671 4.61462C16.4265 4.61462 16.0211 4.49661 15.6997 4.2989V4.29882Z" fill="#00FFFF"/>
<path fill-rule="evenodd" clip-rule="evenodd" d="M4.35581 47.957L8.09223 48.7056C8.79681 48.8467 8.59672 49.7526 7.80775 49.5946L4.07134 48.846C3.76044 48.7837 3.54468 48.5294 3.64632 48.2905L3.64654 48.2899C3.74818 48.0509 4.04427 47.8947 4.3557 47.957H4.35581Z" fill="#00FFFF"/>
<path fill-rule="evenodd" clip-rule="evenodd" d="M49.5269 40.7844L53.2633 41.533C54.0116 41.6829 53.7805 42.5827 52.9788 42.422L49.2424 41.6733C48.9315 41.6111 48.7158 41.3569 48.8174 41.1179L48.8176 41.1173C48.9194 40.8783 49.2154 40.7221 49.5268 40.7844H49.5269Z" fill="#00FFFF"/>
<path fill-rule="evenodd" clip-rule="evenodd" d="M76.1414 20.4264C77.0393 20.4264 77.8266 20.7968 78.2683 21.3531L86.5975 30.9552C86.8096 31.2601 87.2224 31.4669 87.6969 31.4669C88.1489 31.4669 88.5449 31.2793 88.7648 30.9981L97.1582 21.301C97.6068 20.7737 98.3728 20.4264 99.2424 20.4264C100.585 20.4264 101.68 21.2541 101.743 22.2933L101.746 30.5809C101.725 31.6693 100.642 32.5417 99.2424 32.5417C98.7699 32.5417 98.3281 32.439 97.951 32.2607L91.6356 29.4192L89.8217 31.5237C89.3795 32.0782 88.5933 32.4473 87.697 32.4473C86.8087 32.4473 86.0286 32.0848 85.5843 31.5385L77.1984 21.8621C76.9765 21.5885 76.5859 21.4069 76.1414 21.4069C75.4501 21.4069 74.8897 21.8458 74.8897 22.3872C74.9527 25.7253 74.8919 29.1048 74.8903 32.4473H73.6382V22.3872C73.6382 21.3043 74.7589 20.4265 76.1414 20.4265V20.4264ZM98.6002 31.4225C98.7879 31.5105 99.0077 31.5613 99.2425 31.5613C100.142 31.5613 100.458 30.9233 100.503 30.6802L100.492 22.33C100.473 21.8145 99.9092 21.4068 99.2425 21.4068C98.8052 21.4068 98.4202 21.5825 98.1966 21.8487L92.3417 28.6058L98.6003 31.4225H98.6002Z" fill="white"/>
<path fill-rule="evenodd" clip-rule="evenodd" d="M109.292 23.6688C106.24 23.2063 103.635 25.681 103.635 28.1149V28.1151C103.635 30.5495 106.178 32.5414 109.286 32.5414H126.77C129.801 32.5414 132.111 30.6877 132.233 28.3365L132.429 25.5016C132.615 22.8095 129.613 20.5997 126.171 20.5997H104.552V21.5801H126.171C128.842 21.5801 131.047 23.2461 131.172 25.3155C131.175 25.3769 131.116 26.9854 131.116 27.0478L109.292 23.6687L109.292 23.6688ZM131.044 28.1149L109.286 24.7669C106.979 24.412 105.011 26.2735 105.011 28.1149C105.011 29.9564 106.935 31.463 109.286 31.463H126.77C129.121 31.463 131.044 29.9564 131.044 28.1149Z" fill="white"/>
<path fill-rule="evenodd" clip-rule="evenodd" d="M161.633 28.8976C162.363 29.2401 162.851 29.8658 162.851 30.581C162.851 31.6509 161.757 32.5206 160.398 32.5414L134.832 32.5418V32.423V31.561V10.9935H136.084V31.069L162.181 20.8142L162.736 21.6935L153.728 25.233C156.362 26.4548 159 27.6808 161.633 28.8977V28.8976ZM152.398 25.7556L137.624 31.561L160.367 31.5612C161.05 31.5533 161.6 31.1174 161.6 30.581C161.6 30.2466 161.386 29.9513 161.06 29.7744L152.398 25.7556L152.398 25.7556Z" fill="white"/>
<path fill-rule="evenodd" clip-rule="evenodd" d="M171.342 32.5417H192.961V31.5613H178.875L191.592 26.2523C192.792 25.7508 193.609 24.7604 193.609 23.6203C193.609 21.974 191.906 20.6395 189.804 20.6395H171.342C167.9 20.6395 165.084 22.8454 165.084 25.5414V27.6398C165.084 30.3358 167.9 32.5417 171.342 32.5417ZM176.212 31.5613H171.342C168.591 31.5613 166.335 29.7946 166.335 27.6398V25.5414C166.335 23.3865 168.591 21.6199 171.342 21.6199H189.804C191.221 21.6349 192.358 22.503 192.358 23.6203C192.358 24.4101 191.773 25.0929 190.925 25.4181L176.212 31.5613H176.212Z" fill="white"/>
<path fill-rule="evenodd" clip-rule="evenodd" d="M225.865 26.985C227.479 26.985 228.786 28.009 228.786 29.2733C228.786 30.5376 227.479 31.5617 225.865 31.5617C217.769 31.5617 209.671 31.5584 201.575 31.5613V32.5422C209.671 32.5419 217.768 32.5422 225.865 32.5422C228.17 32.5422 230.038 31.0787 230.038 29.2733C230.038 27.4682 228.17 26.0047 225.865 26.0047C219.149 26.0047 212.432 26.0048 205.716 26.0048C204.116 25.9915 202.826 24.9726 202.826 23.7167C202.826 22.4625 204.113 21.4446 205.709 21.4288C213.819 21.4288 221.934 21.2892 230.043 21.2892V20.3083L205.541 20.4522C203.333 20.5361 201.574 21.9655 201.574 23.7167C201.574 25.5138 203.426 26.9719 205.716 26.9852C212.432 26.9876 219.149 26.9851 225.865 26.9851L225.865 26.985Z" fill="white"/>
<path fill-rule="evenodd" clip-rule="evenodd" d="M239.907 11.0931H241.159V20.3081H247.529V21.2889H241.159V29.4885C241.159 30.6334 242.222 31.5613 243.712 31.5613C245.952 31.5613 248.193 31.5568 250.435 31.561V32.5418C248.194 32.541 245.953 32.5418 243.712 32.5418C241.575 32.5418 239.93 31.2073 239.906 29.5469V21.2889H233.95V20.3081H239.906V11.0931H239.907Z" fill="white"/>
<path fill-rule="evenodd" clip-rule="evenodd" d="M258.652 32.5417H280.271V31.5613H266.186L278.902 26.2523C280.103 25.7508 280.92 24.7604 280.92 23.6203C280.92 21.974 279.216 20.6395 277.114 20.6395H258.652C255.211 20.6395 252.394 22.8454 252.394 25.5414V27.6398C252.394 30.3358 255.211 32.5417 258.652 32.5417ZM263.523 31.5613H258.652C255.901 31.5613 253.646 29.7946 253.646 27.6398V25.5414C253.646 23.3865 255.901 21.6199 258.652 21.6199H277.114C278.531 21.6349 279.668 22.503 279.668 23.6203C279.668 24.4101 279.084 25.0929 278.235 25.4181L263.523 31.5613Z" fill="white"/>
<path fill-rule="evenodd" clip-rule="evenodd" d="M316.967 20.4264C317.865 20.4264 318.653 20.7968 319.094 21.3531L327.424 30.9552C327.636 31.2601 328.049 31.4669 328.523 31.4669C328.975 31.4669 329.371 31.2793 329.591 30.9981L337.984 21.301C338.433 20.7737 339.199 20.4264 340.069 20.4264C341.411 20.4264 342.506 21.2541 342.569 22.2933L342.572 30.5809C342.551 31.6693 341.468 32.5417 340.069 32.5417C339.596 32.5417 339.154 32.439 338.777 32.2607L332.462 29.4192L330.648 31.5237C330.206 32.0782 329.419 32.4473 328.523 32.4473C327.635 32.4473 326.855 32.0848 326.41 31.5385L318.025 21.8621C317.803 21.5885 317.412 21.4069 316.967 21.4069C316.276 21.4069 315.716 21.8458 315.716 22.3872C315.779 25.7253 315.718 29.1048 315.716 32.4473H314.464V22.3872C314.464 21.3043 315.585 20.4265 316.967 20.4265V20.4264ZM339.426 31.4225C339.614 31.5105 339.834 31.5613 340.069 31.5613C340.968 31.5613 341.284 30.9233 341.329 30.6802L341.318 22.33C341.299 21.8145 340.735 21.4068 340.069 21.4068C339.631 21.4068 339.246 21.5825 339.023 21.8487L333.168 28.6058L339.426 31.4225H339.426Z" fill="white"/>
<path fill-rule="evenodd" clip-rule="evenodd" d="M288.304 23.6688C285.253 23.2063 282.647 25.681 282.647 28.1149V28.1151C282.647 30.5495 285.19 32.5414 288.298 32.5414H305.783C308.813 32.5414 311.123 30.6877 311.246 28.3365L311.441 25.5016C311.627 22.8095 308.625 20.5997 305.184 20.5997H283.564V21.5801H305.184C307.855 21.5801 310.059 23.2461 310.184 25.3155C310.188 25.3769 310.129 26.9854 310.129 27.0478L288.304 23.6687L288.304 23.6688ZM310.057 28.1149L288.298 24.7669C285.991 24.412 284.024 26.2735 284.024 28.1149C284.024 29.9564 285.947 31.463 288.298 31.463H305.783C308.134 31.463 310.057 29.9564 310.057 28.1149H310.057Z" fill="white"/>
<path d="M90.4392 55.5629C90.6547 55.5629 90.844 55.6248 91.0023 55.7484C91.1606 55.872 91.2399 56.0197 91.2399 56.1847C91.2399 56.3599 91.1606 56.5077 91.0023 56.6245C90.844 56.7413 90.6547 56.7996 90.4392 56.7996H77.6938C77.1175 56.7996 76.5762 56.7137 76.0703 56.542C75.56 56.3703 75.12 56.1401 74.7416 55.8446C74.3632 55.5491 74.064 55.2021 73.8485 54.807C73.6286 54.412 73.5185 53.986 73.5185 53.5395V43.5594C73.5185 43.1128 73.6286 42.6903 73.8485 42.2986C74.064 41.9035 74.3632 41.56 74.7416 41.2645C75.12 40.969 75.56 40.7388 76.0703 40.5671C76.5762 40.3954 77.1173 40.3094 77.6938 40.3094H90.4392C90.6547 40.3094 90.8394 40.3678 90.989 40.4881C91.1386 40.6049 91.2135 40.7528 91.2135 40.9279C91.2135 41.0962 91.1388 41.2406 90.989 41.3642C90.8394 41.4844 90.6547 41.5463 90.4392 41.5463H77.6938C77.333 41.5463 76.9942 41.6012 76.6819 41.7078C76.3694 41.8143 76.0967 41.9586 75.8635 42.1441C75.6303 42.3296 75.4455 42.5426 75.3091 42.79C75.1728 43.0338 75.1023 43.2916 75.1023 43.5663V47.7713H90.1046C90.3291 47.7713 90.5138 47.8332 90.6678 47.9568C90.8174 48.0804 90.8923 48.2248 90.8923 48.3827C90.8923 48.551 90.8174 48.6989 90.6678 48.8225C90.5138 48.9461 90.3291 49.008 90.1046 49.008H75.1023V53.5395C75.1023 53.8211 75.1726 54.0856 75.3091 54.3296C75.4455 54.5734 75.6303 54.7866 75.8635 54.9687C76.0967 55.1508 76.3694 55.295 76.6819 55.4016C76.9942 55.5081 77.333 55.5631 77.6938 55.5631H90.4392V55.5629ZM110.503 40.9243C110.503 40.7492 110.578 40.6048 110.727 40.4846C110.877 40.3678 111.062 40.3094 111.277 40.3094C111.497 40.3094 111.687 40.3678 111.836 40.4846C111.986 40.6014 112.061 40.7492 112.061 40.9243V53.5393C112.061 53.9859 111.951 54.412 111.731 54.8069C111.511 55.202 111.216 55.549 110.837 55.8444C110.459 56.1399 110.019 56.3701 109.513 56.5418C109.012 56.7135 108.475 56.7995 107.899 56.7995H100.239C99.6626 56.7995 99.1215 56.7135 98.6155 56.5418C98.1096 56.3701 97.6652 56.1399 97.2868 55.8444C96.9084 55.549 96.6138 55.202 96.3937 54.8069C96.1738 54.4118 96.0638 53.9893 96.0638 53.5393V49.3412C96.0638 48.8912 96.1738 48.4685 96.3937 48.0736C96.6136 47.6785 96.9084 47.3315 97.2868 47.0361C97.6652 46.7406 98.1096 46.5104 98.6155 46.3387C99.1215 46.167 99.6669 46.081 100.239 46.081H110.503V40.9243ZM97.6477 53.5393C97.6477 53.821 97.7181 54.0855 97.8545 54.3295C97.991 54.5733 98.1757 54.7864 98.4089 54.9685C98.6421 55.1506 98.9149 55.2949 99.2273 55.4014C99.5396 55.508 99.8785 55.5629 100.239 55.5629H107.899C108.26 55.5629 108.598 55.508 108.915 55.4014C109.236 55.2949 109.509 55.1506 109.742 54.9685C109.975 54.7864 110.16 54.5734 110.297 54.3295C110.433 54.0855 110.503 53.821 110.503 53.5393V47.3176H100.239C99.8785 47.3176 99.5396 47.3725 99.2273 47.4791C98.9149 47.5855 98.6421 47.7299 98.4089 47.912C98.1757 48.0941 97.991 48.3071 97.8545 48.551C97.7181 48.795 97.6477 49.0595 97.6477 49.3412V53.5393ZM121.306 56.7995C120.73 56.7995 120.189 56.7135 119.683 56.5418C119.177 56.3701 118.733 56.1399 118.354 55.8444C117.976 55.549 117.677 55.202 117.461 54.8069C117.241 54.4118 117.131 53.9893 117.131 53.5393V46.6959C117.131 46.5344 117.206 46.3902 117.356 46.2665C117.505 46.1429 117.694 46.081 117.919 46.081C118.13 46.081 118.319 46.1429 118.478 46.2665C118.636 46.3902 118.715 46.5346 118.715 46.6959V53.5393C118.715 53.821 118.785 54.0855 118.922 54.3295C119.058 54.5733 119.243 54.7864 119.476 54.9685C119.709 55.1506 119.982 55.2949 120.295 55.4014C120.607 55.508 120.946 55.5629 121.307 55.5629H131.307C131.307 54.6353 131.307 53.6735 131.307 52.6736C131.307 52.2511 131.307 51.7976 131.307 51.3165C131.307 50.8321 131.307 50.3341 131.307 49.8256C131.307 49.3171 131.307 48.7984 131.307 48.2694C131.307 47.7437 131.307 47.225 131.307 46.7165C131.307 46.5551 131.381 46.4108 131.527 46.287C131.672 46.1634 131.852 46.1015 132.068 46.1015C132.288 46.1015 132.477 46.1634 132.631 46.287C132.785 46.4107 132.864 46.5551 132.864 46.7165V56.1846C132.864 56.3461 132.785 56.4903 132.631 56.614C132.477 56.7376 132.288 56.7995 132.063 56.7995H121.307H121.306ZM153.254 46.0809C153.469 46.0809 153.654 46.1392 153.808 46.256C153.962 46.3728 154.037 46.5206 154.037 46.6923C154.037 46.8606 153.962 47.0085 153.808 47.1321C153.654 47.2557 153.469 47.3176 153.254 47.3176H142.066C141.705 47.3176 141.366 47.3725 141.054 47.4791C140.737 47.5855 140.46 47.7333 140.222 47.9154C139.98 48.1009 139.791 48.3173 139.655 48.5647C139.518 48.8155 139.448 49.08 139.448 49.3617V53.5185C139.448 53.8002 139.518 54.0647 139.655 54.3155C139.791 54.5629 139.98 54.7793 140.213 54.9648C140.451 55.1469 140.728 55.2946 141.045 55.4011C141.366 55.5077 141.705 55.5626 142.066 55.5626H153.201C153.425 55.5626 153.61 55.6245 153.76 55.7447C153.914 55.8649 153.988 56.0127 153.988 56.1845C153.988 56.3596 153.914 56.5074 153.76 56.6242C153.61 56.741 153.425 56.7993 153.201 56.7993H142.066C141.481 56.7993 140.931 56.7134 140.42 56.5417C139.91 56.37 139.466 56.1398 139.087 55.8443C138.709 55.5488 138.41 55.2018 138.194 54.7999C137.974 54.4014 137.864 53.9753 137.864 53.5185V49.3617C137.864 48.9047 137.974 48.4788 138.194 48.0803C138.41 47.6784 138.709 47.3314 139.087 47.0359C139.466 46.7404 139.91 46.5102 140.42 46.3385C140.931 46.1668 141.481 46.0809 142.066 46.0809H153.254ZM170.7 46.0809C171.268 46.0809 171.8 46.1634 172.297 46.3317C172.794 46.5 173.23 46.7268 173.599 47.0119C173.969 47.2971 174.259 47.6337 174.475 48.022C174.69 48.4136 174.796 48.8293 174.796 49.2725V53.608C174.796 54.0512 174.69 54.4669 174.475 54.8585C174.259 55.2468 173.969 55.5834 173.599 55.8686C173.23 56.1539 172.799 56.3805 172.301 56.5488C171.809 56.7171 171.281 56.7996 170.722 56.7996H162.517C161.949 56.7996 161.417 56.7171 160.916 56.5488C160.418 56.3805 159.987 56.1537 159.622 55.8652C159.257 55.5767 158.966 55.2365 158.751 54.8483C158.535 54.4566 158.43 54.0444 158.43 53.608C158.43 53.1683 158.535 52.7526 158.751 52.3609C158.966 51.9727 159.261 51.6327 159.635 51.344C160.009 51.0555 160.445 50.8287 160.942 50.6603C161.444 50.492 161.976 50.4095 162.543 50.4095H173.265V49.2723C173.265 48.9941 173.195 48.7364 173.058 48.496C172.922 48.2521 172.737 48.0424 172.504 47.8605C172.271 47.6784 172.002 47.5375 171.694 47.4311C171.382 47.3281 171.052 47.2765 170.7 47.2765H159.363C159.138 47.2765 158.949 47.218 158.795 47.1012C158.641 46.9844 158.562 46.8402 158.562 46.6719C158.562 46.5138 158.641 46.373 158.795 46.2562C158.949 46.1394 159.138 46.081 159.363 46.081H170.7L170.7 46.0809ZM159.987 53.6079C159.987 53.8861 160.053 54.1404 160.185 54.381C160.321 54.618 160.502 54.8275 160.726 55.0028C160.955 55.1815 161.223 55.3223 161.527 55.4287C161.83 55.5317 162.16 55.5834 162.512 55.5834H170.726C171.078 55.5834 171.408 55.5319 171.716 55.4287C172.029 55.3223 172.297 55.1813 172.526 55.0028C172.75 54.8275 172.931 54.618 173.067 54.381C173.199 54.1405 173.265 53.8863 173.265 53.6079V51.6051H162.539C162.187 51.6051 161.857 51.66 161.549 51.7665C161.237 51.8729 160.968 52.0173 160.735 52.1994C160.502 52.3815 160.321 52.5911 160.185 52.8349C160.053 53.0754 159.987 53.3332 159.987 53.6079ZM186.791 55.5628C187.011 55.5628 187.2 55.6246 187.35 55.7483C187.5 55.8719 187.574 56.0196 187.574 56.1846C187.574 56.3597 187.5 56.5075 187.35 56.6243C187.2 56.7411 187.011 56.7995 186.791 56.7995H183.993C183.417 56.7995 182.876 56.7135 182.37 56.5418C181.859 56.3701 181.419 56.1399 181.041 55.8444C180.663 55.549 180.363 55.202 180.148 54.8069C179.928 54.4118 179.818 53.9859 179.818 53.5393V40.9243C179.818 40.7492 179.893 40.6014 180.042 40.4846C180.192 40.3678 180.381 40.3094 180.606 40.3094C180.817 40.3094 181.006 40.3678 181.164 40.4846C181.323 40.6048 181.402 40.7492 181.402 40.9243V46.0604H186.765C186.989 46.0604 187.174 46.1187 187.324 46.2355C187.473 46.3523 187.548 46.5001 187.548 46.6719C187.548 46.8402 187.473 46.9844 187.324 47.1012C187.174 47.218 186.989 47.2765 186.765 47.2765H181.402V53.5393C181.402 53.821 181.472 54.0855 181.609 54.3295C181.745 54.5733 181.93 54.7864 182.163 54.9685C182.396 55.1506 182.669 55.2949 182.981 55.4014C183.294 55.508 183.633 55.5629 183.993 55.5629H186.791L186.791 55.5628ZM192.944 46.0809C193.155 46.0809 193.344 46.1392 193.503 46.256C193.661 46.3728 193.74 46.5136 193.74 46.6751V56.1845C193.74 56.3596 193.661 56.5074 193.503 56.6242C193.344 56.741 193.155 56.7993 192.944 56.7993C192.72 56.7993 192.53 56.741 192.381 56.6242C192.231 56.5074 192.156 56.3596 192.156 56.1845V46.6751C192.156 46.5136 192.231 46.3728 192.381 46.256C192.53 46.1392 192.72 46.0809 192.944 46.0809ZM192.156 44.0368C192.156 43.8615 192.231 43.7139 192.381 43.5971C192.53 43.4803 192.72 43.4218 192.944 43.4218C193.155 43.4218 193.344 43.4803 193.503 43.5971C193.661 43.7139 193.74 43.8615 193.74 44.0368V44.7617C193.74 44.9265 193.661 45.0742 193.503 45.1946C193.344 45.3148 193.155 45.3733 192.944 45.3733C192.72 45.3733 192.53 45.3148 192.381 45.1946C192.231 45.0744 192.156 44.9265 192.156 44.7617V44.0368ZM213.162 46.0809C213.734 46.0809 214.275 46.1668 214.777 46.3385C215.282 46.5102 215.722 46.7406 216.101 47.0359C216.479 47.3314 216.774 47.6784 216.994 48.0735C217.214 48.4685 217.324 48.8911 217.324 49.341V53.5392C217.324 53.9891 217.214 54.4118 216.994 54.8067C216.774 55.2018 216.479 55.5488 216.101 55.8443C215.722 56.1398 215.282 56.37 214.777 56.5417C214.275 56.7134 213.734 56.7993 213.162 56.7993H203.179C202.608 56.7993 202.062 56.7134 201.556 56.5417C201.05 56.37 200.606 56.1398 200.227 55.8443C199.849 55.5488 199.554 55.2018 199.334 54.8067C199.114 54.4117 199.004 53.9891 199.004 53.5392V49.341C199.004 48.8911 199.114 48.4684 199.334 48.0735C199.554 47.6784 199.849 47.3314 200.227 47.0359C200.606 46.7404 201.05 46.5102 201.556 46.3385C202.062 46.1668 202.607 46.0809 203.179 46.0809H213.162ZM200.588 53.5393C200.588 53.821 200.659 54.0855 200.795 54.3295C200.931 54.5733 201.116 54.7864 201.349 54.9685C201.583 55.1506 201.855 55.2949 202.168 55.4014C202.48 55.508 202.819 55.5629 203.18 55.5629H213.162C213.514 55.5629 213.848 55.508 214.161 55.4014C214.473 55.2949 214.746 55.1506 214.979 54.9685C215.212 54.7864 215.397 54.5734 215.534 54.3295C215.67 54.0855 215.74 53.821 215.74 53.5393V49.3412C215.74 49.0595 215.67 48.795 215.534 48.551C215.397 48.3072 215.212 48.0941 214.979 47.912C214.746 47.7299 214.473 47.5856 214.161 47.4791C213.848 47.3725 213.514 47.3176 213.162 47.3176H203.18C202.819 47.3176 202.48 47.3725 202.168 47.4791C201.855 47.5855 201.583 47.7299 201.349 47.912C201.116 48.0941 200.931 48.3071 200.795 48.551C200.659 48.795 200.588 49.0595 200.588 49.3412V53.5393ZM233.164 46.0809C233.741 46.0809 234.282 46.1668 234.797 46.3385C235.307 46.5068 235.747 46.7406 236.121 47.0359C236.495 47.3314 236.794 47.675 237.01 48.0735C237.23 48.4685 237.34 48.8911 237.34 49.341V56.1845C237.34 56.3596 237.26 56.504 237.106 56.6208C236.952 56.741 236.763 56.7995 236.543 56.7995C236.328 56.7995 236.147 56.7411 236.002 56.6208C235.857 56.504 235.782 56.3597 235.782 56.1845V49.341C235.782 49.0594 235.712 48.7949 235.576 48.5509C235.439 48.3071 235.25 48.0939 235.017 47.9118C234.779 47.7297 234.502 47.5855 234.185 47.4789C233.864 47.3724 233.525 47.3174 233.165 47.3174H223.719V56.1845C223.719 56.3596 223.64 56.504 223.481 56.6208C223.323 56.741 223.134 56.7995 222.922 56.7995C222.698 56.7995 222.509 56.7411 222.359 56.6208C222.21 56.504 222.135 56.3597 222.135 56.1845V46.6922C222.135 46.5341 222.21 46.3933 222.359 46.2765C222.509 46.1597 222.698 46.0944 222.922 46.0807H233.165L233.164 46.0809Z" fill="white"/>
</svg>
