<svg width="30" height="30" viewBox="0 0 30 30" fill="none" xmlns="http://www.w3.org/2000/svg">
<path fill-rule="evenodd" clip-rule="evenodd" d="M11.7456 8.64075C11.2318 8.65293 10.8043 8.85262 10.464 9.23981C10.1762 9.64575 10.0393 10.0986 10.0515 10.5992C10.0515 11.2611 10.2522 11.9492 10.6534 12.6645C10.8475 12.9982 11.0987 13.2814 11.4053 13.5139C11.7128 13.7464 12.0643 13.8626 12.459 13.8626C12.9578 13.8448 13.374 13.6723 13.7068 13.3442C13.8672 13.1117 13.9703 12.8736 14.0162 12.6289C14.0434 12.3842 14.0575 12.1789 14.0575 12.012C14.0575 11.2901 13.8662 10.5636 13.4837 9.83043C13.3047 9.47793 13.0684 9.192 12.7759 8.97168C12.4768 8.76356 12.1337 8.65293 11.7456 8.64075Z" fill="#D84938"/>
<path fill-rule="evenodd" clip-rule="evenodd" d="M12.6503 16.789C12.5537 16.7768 12.3062 16.789 11.9078 16.8246C11.515 16.8781 11.1137 16.9643 10.7031 17.0834C10.6066 17.119 10.4706 17.1724 10.2962 17.2446C10.1209 17.3215 9.94281 17.4312 9.76187 17.5746C9.58656 17.7228 9.43937 17.9074 9.31844 18.1278C9.17969 18.3593 9.10938 18.6396 9.10938 18.9668C9.10938 19.609 9.41125 20.1387 10.015 20.5549C10.5887 20.9721 11.3734 21.1859 12.37 21.1981C13.2634 21.1859 13.945 20.9956 14.4156 20.6271C14.875 20.2634 15.1037 19.7965 15.1037 19.2256C15.1037 18.7615 14.9472 18.3565 14.6331 18.0115C14.3012 17.6843 13.7819 17.2831 13.0759 16.8068C12.955 16.7946 12.8134 16.789 12.6503 16.789Z" fill="#D84938"/>
<path fill-rule="evenodd" clip-rule="evenodd" d="M22.5 15.5353H20.3569V17.6784H19.2863V15.5353H17.1431V14.4638H19.2863V12.3206H20.3569V14.4638H22.5V15.5353ZM14.7731 9.0075C14.9156 9.15 15.0553 9.32531 15.1922 9.53344C15.3234 9.73031 15.4397 9.96187 15.5409 10.23C15.6244 10.4972 15.6656 10.8094 15.6656 11.1666C15.6544 11.8209 15.5053 12.3441 15.2166 12.7369C15.075 12.9272 14.9259 13.1025 14.7675 13.2638C14.5922 13.4241 14.4066 13.5881 14.2087 13.7541C14.0953 13.8675 13.9913 13.995 13.8947 14.1384C13.7822 14.2866 13.7259 14.4591 13.7259 14.6559C13.7259 14.8463 13.7831 15.0037 13.8994 15.1284C13.9978 15.2475 14.0934 15.3516 14.1862 15.4406L14.8294 15.9497C15.2288 16.2647 15.5794 16.6125 15.8813 16.9931C16.1653 17.3803 16.3125 17.8856 16.3247 18.5109C16.3247 19.3969 15.9187 20.1825 15.1078 20.8659C14.2659 21.5737 13.0519 21.9403 11.4656 21.9637C10.1381 21.9516 9.14625 21.6788 8.49187 21.1444C7.83094 20.6456 7.5 20.0484 7.5 19.3537C7.5 19.0153 7.60781 18.6384 7.8225 18.2231C8.03156 17.8069 8.40844 17.4422 8.95594 17.1272C9.57 16.7887 10.215 16.5638 10.8909 16.4503C11.5594 16.3556 12.1153 16.3022 12.5578 16.29C12.4209 16.1166 12.2991 15.9319 12.1922 15.7341C12.0675 15.5428 12.0056 15.3122 12.0056 15.0431C12.0056 14.8819 12.0291 14.7469 12.0769 14.6391C12.1181 14.5256 12.1566 14.4216 12.1922 14.3259C11.9775 14.3494 11.7741 14.3616 11.5837 14.3616C10.5741 14.3494 9.80531 14.0428 9.27563 13.4419C8.72156 12.8831 8.445 12.2316 8.445 11.4881C8.445 10.59 8.83781 9.77531 9.6225 9.04313C10.1606 8.61563 10.7212 8.33531 11.3025 8.205C11.8772 8.09156 12.4163 8.03531 12.9197 8.03531H16.7109L15.54 8.69438H14.3709C14.49 8.76656 14.6241 8.87062 14.7731 9.0075ZM15 0C6.71531 0 0 6.71531 0 15C0 23.2838 6.71531 30 15 30C23.2847 30 30 23.2838 30 15C30 6.71531 23.2847 0 15 0Z" fill="#D84938"/>
</svg>
