<svg width="14" height="14" viewBox="0 0 14 14" fill="none" xmlns="http://www.w3.org/2000/svg">
<path d="M9.18741 5.55632L6.51225 2.88116C6.3481 2.71709 6.1255 2.62495 5.89342 2.625C5.66134 2.62505 5.43878 2.7173 5.27471 2.88145C5.11064 3.0456 5.0185 3.2682 5.01855 3.50028C5.01861 3.73236 5.11086 3.95492 5.275 4.11899L7.95016 6.79357C7.97732 6.82067 7.99887 6.85285 8.01358 6.88829C8.02828 6.92372 8.03585 6.96171 8.03585 7.00007C8.03585 7.03844 8.02828 7.07643 8.01358 7.11186C7.99887 7.14729 7.97732 7.17948 7.95016 7.20657L5.275 9.88116C5.11086 10.0452 5.01861 10.2678 5.01855 10.4999C5.0185 10.732 5.11064 10.9546 5.27471 11.1187C5.43878 11.2828 5.66134 11.3751 5.89342 11.3751C6.1255 11.3752 6.3481 11.2831 6.51225 11.119L9.18741 8.44382C9.56963 8.06055 9.78426 7.54136 9.78426 7.00007C9.78426 6.45879 9.56963 5.93959 9.18741 5.55632Z" fill="#FFF500"/>
</svg>
