<svg width="30" height="30" viewBox="0 0 30 30" fill="none" xmlns="http://www.w3.org/2000/svg">
<path d="M15 0C6.71578 0 0 6.71578 0 15C0 23.2842 6.71578 30 15 30C23.2848 30 30 23.2842 30 15C30 6.71578 23.2848 0 15 0ZM15 27C8.38318 27 3 21.6168 3 15C3 8.38318 8.38318 3 15 3C21.6168 3 27 8.38318 27 15C27 21.6168 21.6168 27 15 27Z" fill="white"/>
<path d="M20.4558 13.95L13.1814 9.75C12.1812 9.17279 11.3628 9.645 11.3628 10.8V19.2C11.3628 20.355 12.1812 20.8278 13.1814 20.25L20.4558 16.05C21.456 15.4728 21.456 14.5272 20.4558 13.95Z" fill="white"/>
</svg>
