<svg width="25" height="20" viewBox="0 0 25 20" fill="none" xmlns="http://www.w3.org/2000/svg">
<path d="M0 12.1351C0 16.6582 2.90668 19.2507 6.13045 19.2507C9.08998 19.2507 11.6267 16.6582 11.6267 13.459C11.6267 10.37 9.56562 8.32912 7.02888 8.32912C6.44755 8.32912 5.91906 8.43944 5.65481 8.54976C6.34185 6.45368 8.77289 4.02666 10.464 3.25442L6.60609 0C2.48389 3.03378 0 7.28108 0 12.1351ZM13.0536 12.1351C13.0536 16.6582 15.9603 19.2507 19.1841 19.2507C22.1436 19.2507 24.6804 16.6582 24.6804 13.459C24.6804 10.37 22.6193 8.32912 20.0825 8.32912C19.5012 8.32912 18.9727 8.43944 18.7085 8.54976C19.3955 6.45368 21.8265 4.02666 23.5177 3.25442L19.6597 0C15.5375 3.03378 13.0536 7.28108 13.0536 12.1351Z" fill="black"/>
</svg>
