<svg width="15" height="14" viewBox="0 0 15 14" fill="none" xmlns="http://www.w3.org/2000/svg">
<path d="M6.81836 13.1367C7.54647 13.1367 8.13672 12.5465 8.13672 11.8184C8.13672 11.0902 7.54647 10.5 6.81836 10.5C6.09025 10.5 5.5 11.0902 5.5 11.8184C5.5 12.5465 6.09025 13.1367 6.81836 13.1367Z" fill="white"/>
<path d="M11.2422 13.1367C11.9703 13.1367 12.5605 12.5465 12.5605 11.8184C12.5605 11.0902 11.9703 10.5 11.2422 10.5C10.5141 10.5 9.92383 11.0902 9.92383 11.8184C9.92383 12.5465 10.5141 13.1367 11.2422 13.1367Z" fill="white"/>
<path d="M0.43945 0.87893H2.27205L4.39365 8.30602L4.22725 8.63883C3.78909 9.51421 4.42515 10.5468 5.40656 10.5468H12.8026C13.0455 10.5468 13.2421 10.3503 13.2421 10.1074C13.2421 9.86448 13.0455 9.66793 12.8026 9.66793H5.40656C5.08022 9.66793 4.86694 9.32431 5.01345 9.03193L5.13492 8.78903H12.8026C12.9988 8.78903 13.1713 8.65901 13.2254 8.47017L14.9832 2.31787C15.0209 2.18527 14.9943 2.04277 14.9115 1.9325C14.8283 1.82263 14.6982 1.75783 14.5605 1.75783H3.43717L3.02605 0.318865C2.97197 0.130048 2.79947 0 2.60333 0H0.43945C0.196551 0 0 0.196551 0 0.43945C0 0.682349 0.196551 0.87893 0.43945 0.87893Z" fill="white"/>
</svg>
