<svg width="10" height="10" viewBox="0 0 10 10" fill="none" xmlns="http://www.w3.org/2000/svg">
<g clip-path="url(#clip0_61_2406)">
<path d="M7.85875 6.0564H3.94218C3.83444 6.0564 3.74707 6.14377 3.74707 6.2515C3.74707 6.35924 3.83444 6.44661 3.94218 6.44661H7.85875C7.96649 6.44661 8.05386 6.35924 8.05386 6.2515C8.05386 6.14377 7.96649 6.0564 7.85875 6.0564Z" fill="black"/>
<path d="M7.85875 7.02783H3.94218C3.83444 7.02783 3.74707 7.1152 3.74707 7.22294C3.74707 7.33068 3.83444 7.41804 3.94218 7.41804H7.85875C7.96649 7.41804 8.05386 7.33068 8.05386 7.22294C8.05386 7.1152 7.96649 7.02783 7.85875 7.02783Z" fill="black"/>
<path d="M7.85875 7.99939H3.94218C3.83444 7.99939 3.74707 8.08676 3.74707 8.1945C3.74707 8.30223 3.83444 8.3896 3.94218 8.3896H7.85875C7.96649 8.3896 8.05386 8.30223 8.05386 8.1945C8.05386 8.08676 7.96649 7.99939 7.85875 7.99939Z" fill="black"/>
<path d="M2.14799 2.54419H1.81795C1.74829 2.54419 1.68359 2.59228 1.68359 2.67852V3.59238C1.68359 3.68693 1.73998 3.73502 1.81795 3.73502C1.89589 3.73502 1.95228 3.68693 1.95228 3.59238V3.34526H2.15626C2.41168 3.34526 2.55265 3.17608 2.55265 2.94556C2.55266 2.67852 2.35531 2.54419 2.14799 2.54419ZM2.09656 3.10645H1.95226V2.78302H2.09656C2.20272 2.78302 2.27405 2.83943 2.27405 2.94556C2.27405 3.02848 2.21101 3.10645 2.09656 3.10645Z" fill="black"/>
<path d="M3.12407 2.54419H2.80232C2.73267 2.54419 2.66797 2.59228 2.66797 2.67852V3.59072C2.66797 3.67698 2.73265 3.72507 2.80232 3.72507H3.12407C3.41597 3.72507 3.6747 3.51278 3.6747 3.12633C3.6747 2.82282 3.47569 2.54419 3.12407 2.54419ZM3.07927 3.47629H2.93663V2.79299H3.09088C3.28658 2.79299 3.3861 2.92732 3.3861 3.12635C3.38612 3.33199 3.28825 3.47629 3.07927 3.47629Z" fill="black"/>
<path d="M4.35327 2.79297C4.43786 2.79297 4.48762 2.74652 4.48762 2.66857C4.48762 2.59394 4.43786 2.54419 4.35327 2.54419H3.94197C3.87231 2.54419 3.80762 2.59228 3.80762 2.67852V3.59238C3.80762 3.68693 3.864 3.73502 3.94197 3.73502C4.01991 3.73502 4.0763 3.68693 4.0763 3.59238V3.25239H4.31844C4.40304 3.25239 4.45279 3.20427 4.45279 3.12799C4.45279 3.0517 4.40304 3.00361 4.31844 3.00361H4.0763V2.79297H4.35327Z" fill="black"/>
<path d="M3.83486 1.9512C3.94267 1.9512 4.03006 1.8638 4.03006 1.756C4.03006 1.64819 3.94267 1.56079 3.83486 1.56079C3.72705 1.56079 3.63965 1.64819 3.63965 1.756C3.63965 1.8638 3.72705 1.9512 3.83486 1.9512Z" fill="black"/>
<path d="M9.45243 2.12015C9.4518 2.11861 9.45114 2.11708 9.45048 2.11554C9.45005 2.11457 9.44968 2.11359 9.44923 2.11262C9.44835 2.11068 9.44724 2.10889 9.44634 2.10698C9.44497 2.10425 9.44367 2.10149 9.44218 2.09884C9.41618 2.04601 9.3824 1.99801 9.3409 1.95649L7.54085 0.156437C7.49947 0.115054 7.45165 0.0813985 7.39877 0.0553128C7.39571 0.0535958 7.39253 0.0520545 7.38937 0.0504936C7.38767 0.0496937 7.38611 0.0487377 7.38441 0.0479572C7.38358 0.047567 7.38272 0.0472548 7.38188 0.0468841C7.38032 0.0462013 7.37874 0.0455379 7.37716 0.0448745C7.30932 0.0151988 7.23738 0 7.16309 0H2.82684C2.51549 0 2.26221 0.253288 2.26221 0.564639V1.56085H1.10288C0.77206 1.56085 0.50293 1.82998 0.50293 2.16081V4.08261C0.50293 4.41343 0.77206 4.68256 1.10288 4.68256H2.26221V9.43536C2.26221 9.74671 2.51549 10 2.82684 10H8.9327C9.24405 10 9.49734 9.74671 9.49734 9.43536V2.33426C9.49734 2.26004 9.48218 2.18818 9.45243 2.12015ZM8.83121 1.99867H7.54179C7.518 1.99867 7.49867 1.97934 7.49867 1.95555V0.666133L8.83121 1.99867ZM8.9327 9.60979H2.82684C2.73066 9.60979 2.65242 9.53153 2.65242 9.43536V4.68256H4.99526C5.32608 4.68256 5.59521 4.41343 5.59521 4.08261V2.16081C5.59521 1.82998 5.32608 1.56085 4.99526 1.56085H4.81478C4.70705 1.56085 4.61968 1.64822 4.61968 1.75596C4.61968 1.8637 4.70705 1.95107 4.81478 1.95107H4.99526C5.11092 1.95107 5.205 2.04515 5.205 2.16081V4.08261C5.205 4.19827 5.11092 4.29235 4.99526 4.29235H1.10288C0.987223 4.29235 0.893143 4.19827 0.893143 4.08261V2.16081C0.893143 2.04515 0.987223 1.95107 1.10288 1.95107H2.85396C2.9617 1.95107 3.04907 1.8637 3.04907 1.75596C3.04907 1.64822 2.9617 1.56085 2.85396 1.56085H2.65242V0.564639C2.65242 0.468451 2.73068 0.390213 2.82684 0.390213H7.10846V1.95555C7.10846 2.1945 7.30284 2.38889 7.54179 2.38889H9.10713V9.43536C9.10713 9.53153 9.02887 9.60979 8.9327 9.60979Z" fill="black"/>
</g>
<defs>
<clipPath id="clip0_61_2406">
<rect width="10" height="10" fill="white"/>
</clipPath>
</defs>
</svg>
