<svg width="15" height="15" viewBox="0 0 15 15" fill="none" xmlns="http://www.w3.org/2000/svg">
<path d="M5.07883 6.43693H1.40371C1.0316 6.43658 0.674832 6.28862 0.411672 6.02551C0.148513 5.76239 0.000460367 5.40561 0 5.03346V1.40347C0.000460367 1.03131 0.148513 0.674537 0.411672 0.411422C0.674832 0.148308 1.0316 0.000345159 1.40371 0H5.07883C5.45086 0.000460214 5.80752 0.148473 6.07059 0.411576C6.33366 0.674678 6.48165 1.03139 6.48211 1.40347V5.03346C6.48165 5.40554 6.33366 5.76225 6.07059 6.02535C5.80752 6.28846 5.45086 6.43647 5.07883 6.43693ZM1.40371 1.08695C1.31977 1.08707 1.2393 1.12044 1.1799 1.17976C1.12051 1.23908 1.08703 1.31952 1.0868 1.40347V5.03346C1.08703 5.11741 1.12051 5.19785 1.1799 5.25717C1.2393 5.31649 1.31977 5.34986 1.40371 5.34998H5.07883C5.16273 5.34986 5.24316 5.31648 5.30249 5.25714C5.36181 5.19781 5.39519 5.11737 5.39531 5.03346V1.40347C5.39519 1.31956 5.36181 1.23912 5.30249 1.17979C5.24316 1.12045 5.16273 1.08707 5.07883 1.08695H1.40371Z" fill="white"/>
<path d="M5.09641 14.9999H1.42129C1.04914 14.9995 0.692371 14.8514 0.429224 14.5882C0.166077 14.325 0.0180383 13.9682 0.0175781 13.596V9.96646C0.0180385 9.5943 0.166091 9.23753 0.42925 8.97441C0.69241 8.7113 1.04918 8.56333 1.42129 8.56299H5.09641C5.46829 8.56368 5.82473 8.71179 6.08761 8.97487C6.35048 9.23795 6.49836 9.59453 6.49882 9.96646V13.596C6.49847 13.968 6.35065 14.3247 6.08776 14.5879C5.82487 14.8511 5.46837 14.9992 5.09641 14.9999ZM1.42129 9.64994C1.33735 9.65005 1.25687 9.68343 1.19748 9.74275C1.13808 9.80207 1.10461 9.88251 1.10438 9.96646V13.596C1.10449 13.68 1.13792 13.7606 1.19733 13.82C1.25673 13.8794 1.33727 13.9129 1.42129 13.913H5.09641C5.18035 13.9127 5.26078 13.8793 5.32009 13.8199C5.37941 13.7604 5.41277 13.68 5.41289 13.596V9.96646C5.41277 9.88255 5.37939 9.80211 5.32007 9.74277C5.26074 9.68344 5.18031 9.65006 5.09641 9.64994H1.42129Z" fill="white"/>
<path d="M13.5945 14.9999H9.91934C9.54719 14.9995 9.19042 14.8514 8.92727 14.5882C8.66412 14.325 8.51609 13.9682 8.51562 13.596V9.96646C8.51609 9.5943 8.66414 9.23753 8.9273 8.97441C9.19046 8.7113 9.54723 8.56333 9.91934 8.56299H13.5945C13.9665 8.56345 14.3231 8.71146 14.5862 8.97456C14.8493 9.23767 14.9973 9.59438 14.9977 9.96646V13.596C14.9974 13.9682 14.8494 14.325 14.5864 14.5882C14.3233 14.8514 13.9666 14.9995 13.5945 14.9999ZM9.91934 9.65211C9.8354 9.65223 9.75492 9.6856 9.69553 9.74492C9.63613 9.80424 9.60265 9.88468 9.60242 9.96863V13.5982C9.60254 13.6822 9.63596 13.7628 9.69537 13.8222C9.75478 13.8816 9.83532 13.915 9.91934 13.9151H13.5945C13.6784 13.9149 13.7588 13.8814 13.8181 13.822C13.8775 13.7626 13.9108 13.6821 13.9109 13.5982V9.96646C13.9108 9.88255 13.8774 9.80211 13.8181 9.74277C13.7588 9.68344 13.6784 9.65006 13.5945 9.64994L9.91934 9.65211Z" fill="white"/>
<path d="M11.7594 6.43686C11.1242 6.43214 10.5046 6.23944 9.97876 5.88305C9.45289 5.52666 9.04429 5.02254 8.80447 4.43425C8.56465 3.84595 8.50435 3.1998 8.63116 2.57728C8.75798 1.95475 9.06623 1.38371 9.51706 0.936139C9.96789 0.48857 10.5411 0.184511 11.1645 0.0622932C11.7878 -0.0599242 12.4334 0.00517171 13.0199 0.249374C13.6063 0.493577 14.1073 0.905954 14.4597 1.43452C14.8122 1.96308 15.0002 2.58417 15.0003 3.21949C14.996 4.07562 14.6524 4.89512 14.0449 5.49826C13.4374 6.10141 12.6154 6.43895 11.7594 6.43686ZM11.7594 1.08906C11.3392 1.09378 10.9297 1.22273 10.5826 1.45967C10.2354 1.69661 9.96614 2.03097 9.80857 2.42064C9.65101 2.81032 9.61222 3.2379 9.69709 3.64958C9.78197 4.06125 9.9867 4.43862 10.2855 4.73418C10.5844 5.02973 10.9639 5.23027 11.3765 5.31056C11.789 5.39084 12.2161 5.34728 12.6039 5.18535C12.9918 5.02343 13.323 4.75038 13.5561 4.40057C13.7891 4.05076 13.9134 3.63982 13.9135 3.21949C13.91 2.65118 13.6813 2.10746 13.2774 1.70764C12.8736 1.30782 12.3277 1.08457 11.7594 1.08689V1.08906Z" fill="white"/>
</svg>
