<svg width="15" height="15" viewBox="0 0 15 15" fill="none" xmlns="http://www.w3.org/2000/svg">
<path d="M7.5 0.625061C6.14026 0.625061 4.81105 1.02827 3.68046 1.78371C2.54987 2.53914 1.66868 3.61287 1.14833 4.86911C0.627979 6.12535 0.491831 7.50769 0.757104 8.84131C1.02238 10.1749 1.67716 11.3999 2.63864 12.3614C3.60013 13.3229 4.82514 13.9777 6.15876 14.243C7.49238 14.5082 8.87471 14.3721 10.131 13.8517C11.3872 13.3314 12.4609 12.4502 13.2164 11.3196C13.9718 10.189 14.375 8.85981 14.375 7.50006C14.3729 5.67736 13.6478 3.92992 12.359 2.64108C11.0701 1.35223 9.32271 0.627211 7.5 0.625061ZM7.5 13.1251C6.38748 13.1251 5.29995 12.7952 4.37492 12.1771C3.44989 11.559 2.72892 10.6805 2.30318 9.65266C1.87744 8.62482 1.76604 7.49382 1.98309 6.40268C2.20013 5.31154 2.73586 4.30926 3.52253 3.52259C4.3092 2.73592 5.31148 2.20019 6.40262 1.98314C7.49376 1.7661 8.62476 1.8775 9.6526 2.30324C10.6804 2.72898 11.5589 3.44995 12.177 4.37498C12.7951 5.30001 13.125 6.38754 13.125 7.50006C13.1232 8.99135 12.53 10.421 11.4755 11.4755C10.421 12.53 8.99129 13.1232 7.5 13.1251Z" fill="#00F1EF"/>
<path d="M8.125 7.24119V3.74994C8.125 3.58418 8.05915 3.42521 7.94194 3.308C7.82473 3.19079 7.66576 3.12494 7.5 3.12494C7.33424 3.12494 7.17527 3.19079 7.05806 3.308C6.94085 3.42521 6.875 3.58418 6.875 3.74994V7.49994C6.87504 7.66569 6.94091 7.82463 7.05813 7.94181L8.93313 9.81681C9.051 9.93066 9.20888 9.99366 9.37275 9.99224C9.53662 9.99081 9.69338 9.92508 9.80926 9.8092C9.92514 9.69332 9.99087 9.53656 9.9923 9.37269C9.99372 9.20882 9.93072 9.05094 9.81688 8.93306L8.125 7.24119Z" fill="#00F1EF"/>
</svg>
