<svg width="10" height="10" viewBox="0 0 10 10" fill="none" xmlns="http://www.w3.org/2000/svg">
<path d="M8.53516 5.23737H7.55629C7.42307 5.23737 7.29408 5.25557 7.17133 5.28905C6.92918 4.81303 6.4348 4.48596 5.86514 4.48596H4.13486C3.5652 4.48596 3.07082 4.81303 2.82867 5.28905C2.70592 5.25557 2.57693 5.23737 2.44371 5.23737H1.46484C0.657129 5.23737 0 5.8945 0 6.70221V8.26702C0 8.75165 0.394277 9.14592 0.878906 9.14592H9.12109C9.60572 9.14592 10 8.75165 10 8.26702V6.70221C10 5.8945 9.34287 5.23737 8.53516 5.23737ZM2.67002 5.95085V8.56001H0.878906C0.717363 8.56001 0.585938 8.42858 0.585938 8.26704V6.70223C0.585938 6.2176 0.980215 5.82333 1.46484 5.82333H2.44371C2.52324 5.82333 2.60025 5.83413 2.67357 5.85403C2.67146 5.88608 2.67002 5.91831 2.67002 5.95085ZM6.74404 8.56001H3.25596V5.95083C3.25596 5.4662 3.65023 5.07192 4.13486 5.07192H5.86514C6.34977 5.07192 6.74404 5.4662 6.74404 5.95083V8.56001ZM9.41406 8.26704C9.41406 8.42858 9.28264 8.56001 9.12109 8.56001H7.32998V5.95083C7.32998 5.91827 7.32854 5.88604 7.32643 5.85401C7.39975 5.83413 7.47676 5.82331 7.55629 5.82331H8.53516C9.01978 5.82331 9.41406 6.21758 9.41406 6.70221V8.26704Z" fill="black"/>
<path d="M1.95402 2.47083C1.23627 2.47083 0.652344 3.05475 0.652344 3.7725C0.652324 4.49026 1.23627 5.07418 1.95402 5.07418C2.67176 5.07418 3.2557 4.49026 3.2557 3.7725C3.2557 3.05475 2.67178 2.47083 1.95402 2.47083ZM1.954 4.48825C1.55934 4.48825 1.23826 4.16717 1.23826 3.7725C1.23826 3.37784 1.55934 3.05676 1.954 3.05676C2.34867 3.05676 2.66975 3.37784 2.66975 3.7725C2.66975 4.16717 2.34867 4.48825 1.954 4.48825Z" fill="black"/>
<path d="M4.99977 0.854126C4.04086 0.854126 3.26074 1.63424 3.26074 2.59315C3.26074 3.55205 4.04086 4.33217 4.99977 4.33217C5.95867 4.33217 6.73879 3.55205 6.73879 2.59315C6.73879 1.63426 5.95867 0.854126 4.99977 0.854126ZM4.99977 3.74623C4.36395 3.74623 3.84668 3.22897 3.84668 2.59315C3.84668 1.95735 4.36395 1.44006 4.99977 1.44006C5.63559 1.44006 6.15285 1.95733 6.15285 2.59315C6.15285 3.22897 5.63559 3.74623 4.99977 3.74623Z" fill="black"/>
<path d="M8.04582 2.47083C7.32809 2.47083 6.74414 3.05475 6.74414 3.7725C6.74416 4.49026 7.32809 5.07418 8.04582 5.07418C8.76357 5.07418 9.3475 4.49026 9.3475 3.7725C9.3475 3.05475 8.76357 2.47083 8.04582 2.47083ZM8.04582 4.48825C7.65117 4.48825 7.33008 4.16717 7.33008 3.7725C7.3301 3.37784 7.65117 3.05676 8.04582 3.05676C8.44049 3.05676 8.76156 3.37784 8.76156 3.7725C8.76156 4.16717 8.44049 4.48825 8.04582 4.48825Z" fill="black"/>
</svg>
