<svg width="10" height="10" viewBox="0 0 10 10" fill="none" xmlns="http://www.w3.org/2000/svg">
<path d="M6.54232 4.88209C6.95226 4.56152 7.25195 4.12101 7.3996 3.62199C7.54724 3.12296 7.53547 2.59031 7.36594 2.09829C7.19641 1.60628 6.87756 1.17943 6.45386 0.877275C6.03015 0.57512 5.52272 0.41272 5.00232 0.41272C4.48191 0.41272 3.97448 0.57512 3.55078 0.877275C3.12708 1.17943 2.80823 1.60628 2.6387 2.09829C2.46916 2.59031 2.4574 3.12296 2.60504 3.62199C2.75268 4.12101 3.05237 4.56152 3.46232 4.88209C2.68781 5.19026 2.02343 5.72348 1.55493 6.41294C1.08643 7.10239 0.835311 7.91643 0.833984 8.75V9.16667C0.833984 9.27718 0.877883 9.38316 0.956023 9.4613C1.03416 9.53944 1.14014 9.58334 1.25065 9.58334H8.75065C8.86116 9.58334 8.96714 9.53944 9.04528 9.4613C9.12342 9.38316 9.16732 9.27718 9.16732 9.16667V8.75C9.16626 7.91682 8.91563 7.10305 8.44775 6.41364C7.97988 5.72423 7.31621 5.19078 6.54232 4.88209ZM3.33398 2.91667C3.33398 2.58703 3.43173 2.2648 3.61487 1.99072C3.798 1.71664 4.0583 1.50302 4.36285 1.37687C4.66739 1.25072 5.0025 1.21772 5.3258 1.28203C5.6491 1.34634 5.94607 1.50507 6.17916 1.73816C6.41225 1.97124 6.57098 2.26822 6.63529 2.59152C6.6996 2.91482 6.6666 3.24993 6.54045 3.55447C6.4143 3.85902 6.20068 4.11932 5.9266 4.30245C5.65252 4.48559 5.33029 4.58334 5.00065 4.58334C4.55862 4.58334 4.1347 4.40774 3.82214 4.09518C3.50958 3.78262 3.33398 3.3587 3.33398 2.91667ZM1.66732 8.75C1.66732 7.86595 2.01851 7.0181 2.64363 6.39298C3.26875 5.76786 4.1166 5.41667 5.00065 5.41667C5.88471 5.41667 6.73255 5.76786 7.35767 6.39298C7.9828 7.0181 8.33398 7.86595 8.33398 8.75H1.66732Z" fill="#00F1EF"/>
</svg>
