<svg width="15" height="13" viewBox="0 0 15 13" fill="none" xmlns="http://www.w3.org/2000/svg">
<path d="M0 4.97122L5.41462 8.07125L6.82129 6.30632L1.11984 3.2959L0 4.97122Z" fill="#00F1EF"/>
<path d="M8.16357 6.29967L9.57547 8.07121L15 4.96548L13.865 3.17358L8.16357 6.29967Z" fill="#00F1EF"/>
<path d="M1.94141 2.73641L7.49099 5.66664L13.0485 2.61943L7.50307 0L1.94141 2.73641Z" fill="#00F1EF"/>
<path d="M1.41382 9.71321L7.05601 12.6923V7.4207L5.86645 8.91324C5.73145 9.08266 5.49315 9.12827 5.30514 9.02061L1.41382 6.79272V9.71321Z" fill="#00F1EF"/>
<path d="M7.93408 7.42074V12.6787L13.5763 9.58077V6.79272L9.68495 9.02061C9.49697 9.12821 9.25863 9.08263 9.12367 8.91324L7.93408 7.42074Z" fill="#00F1EF"/>
</svg>
