<svg width="15" height="15" viewBox="0 0 15 15" fill="none" xmlns="http://www.w3.org/2000/svg">
<path d="M5.80311 11.4027H2.3755C2.18807 11.4027 2.03613 11.5546 2.03613 11.7421C2.03613 11.9295 2.18807 12.0814 2.3755 12.0814H5.80311C5.99054 12.0814 6.14247 11.9295 6.14247 11.7421C6.14247 11.5546 5.99054 11.4027 5.80311 11.4027Z" fill="#00F1EF"/>
<path d="M10.9271 11.4027H7.49952C7.31209 11.4027 7.16016 11.5546 7.16016 11.7421C7.16016 11.9295 7.31209 12.0814 7.49952 12.0814H10.9271C11.1145 12.0814 11.2665 11.9295 11.2665 11.7421C11.2665 11.5546 11.1145 11.4027 10.9271 11.4027Z" fill="#00F1EF"/>
<path d="M10.9275 2.91852H2.3755C2.18807 2.91852 2.03613 3.07045 2.03613 3.25788C2.03613 3.44532 2.18807 3.59725 2.3755 3.59725H10.9275C11.1149 3.59725 11.2669 3.44532 11.2669 3.25788C11.2669 3.07045 11.1149 2.91852 10.9275 2.91852Z" fill="#00F1EF"/>
<path d="M10.9271 4.61536H7.49952C7.31209 4.61536 7.16016 4.76729 7.16016 4.95472C7.16016 5.14216 7.31209 5.29409 7.49952 5.29409H10.9271C11.1145 5.29409 11.2665 5.14216 11.2665 4.95472C11.2665 4.76729 11.1145 4.61536 10.9271 4.61536Z" fill="#00F1EF"/>
<path d="M10.9271 6.31219H7.49952C7.31209 6.31219 7.16016 6.46413 7.16016 6.65156C7.16016 6.83899 7.31209 6.99093 7.49952 6.99093H10.9271C11.1145 6.99093 11.2665 6.83899 11.2665 6.65156C11.2665 6.46413 11.1145 6.31219 10.9271 6.31219Z" fill="#00F1EF"/>
<path d="M10.9271 8.00903H7.49952C7.31209 8.00903 7.16016 8.16097 7.16016 8.34841C7.16016 8.53584 7.31209 8.68778 7.49952 8.68778H10.9271C11.1145 8.68778 11.2665 8.53584 11.2665 8.34841C11.2665 8.16097 11.1145 8.00903 10.9271 8.00903Z" fill="#00F1EF"/>
<path d="M10.9271 9.70587H7.49952C7.31209 9.70587 7.16016 9.85781 7.16016 10.0452C7.16016 10.2327 7.31209 10.3846 7.49952 10.3846H10.9271C11.1145 10.3846 11.2665 10.2327 11.2665 10.0452C11.2665 9.85781 11.1145 9.70587 10.9271 9.70587Z" fill="#00F1EF"/>
<path d="M5.80311 9.70587H2.3755C2.18807 9.70587 2.03613 9.85781 2.03613 10.0452C2.03613 10.2327 2.18807 10.3846 2.3755 10.3846H5.80311C5.99054 10.3846 6.14247 10.2327 6.14247 10.0452C6.14247 9.85781 5.99054 9.70587 5.80311 9.70587Z" fill="#00F1EF"/>
<path d="M5.80311 4.61536H2.3755C2.18807 4.61536 2.03613 4.76729 2.03613 4.95472V8.38232C2.03613 8.56976 2.18807 8.72169 2.3755 8.72169H5.80311C5.99054 8.72169 6.14247 8.56976 6.14247 8.38232V4.95472C6.14247 4.76729 5.99054 4.61536 5.80311 4.61536ZM5.46374 8.04296H2.71487V5.29409H5.46374V8.04296Z" fill="#00F1EF"/>
<path d="M14.3213 2.57916H13.3032V1.56106C13.3032 1.1868 12.9987 0.882324 12.6244 0.882324H0.678733C0.30448 0.882324 0 1.1868 0 1.56106V12.4208C0 13.3564 0.761199 14.1176 1.69683 14.1176H13.3032C14.2388 14.1176 15 13.3564 15 12.4208V3.25789C15 2.88364 14.6955 2.57916 14.3213 2.57916ZM14.3213 12.4208C14.3213 12.9822 13.8645 13.4389 13.3032 13.4389H1.69683C1.13545 13.4389 0.678733 12.9822 0.678733 12.4208V1.56106H12.6244V11.9117C12.6244 12.3796 13.005 12.7602 13.4729 12.7602C13.6602 12.7602 13.8122 12.6082 13.8122 12.4208C13.8122 12.2334 13.6602 12.0814 13.4729 12.0814C13.3793 12.0814 13.3032 12.0053 13.3032 11.9117V3.25789H14.3213V12.4208Z" fill="#00F1EF"/>
</svg>
