<svg width="30" height="30" viewBox="0 0 30 30" fill="none" xmlns="http://www.w3.org/2000/svg">
<path d="M15 30C23.2843 30 30 23.2843 30 15C30 6.71573 23.2843 0 15 0C6.71573 0 0 6.71573 0 15C0 23.2843 6.71573 30 15 30Z" fill="#1590D8"/>
<path d="M20.9757 12.1729C20.9856 12.3122 20.9856 12.4514 20.9856 12.5907C20.9856 16.8378 17.7734 21.7315 11.9024 21.7315C10.0936 21.7315 8.41339 21.2043 7 20.2893C7.25699 20.3191 7.50406 20.329 7.77094 20.329C9.26337 20.329 10.6372 19.8218 11.7344 18.9564C10.3308 18.9266 9.15467 18.0016 8.74942 16.7284C8.94712 16.7582 9.14478 16.7781 9.35236 16.7781C9.63898 16.7781 9.92563 16.7383 10.1925 16.6687C8.72968 16.3703 7.63254 15.0773 7.63254 13.5157V13.4759C8.05753 13.7146 8.55176 13.8638 9.07557 13.8837C8.21567 13.3068 7.65231 12.3221 7.65231 11.2081C7.65231 10.6113 7.81043 10.0643 8.08719 9.58683C9.65873 11.5363 12.021 12.8095 14.6698 12.9487C14.6204 12.71 14.5907 12.4614 14.5907 12.2127C14.5907 10.4422 16.014 9 17.7832 9C18.7024 9 19.5326 9.38791 20.1158 10.0145C20.8373 9.8753 21.5292 9.60673 22.142 9.23872C21.9047 9.98472 21.4007 10.6113 20.7385 11.0092C21.3809 10.9396 22.0036 10.7605 22.5769 10.5119C22.1421 11.1484 21.5984 11.7154 20.9757 12.1729Z" fill="white"/>
<mask id="mask0_263_1223" style="mask-type:alpha" maskUnits="userSpaceOnUse" x="7" y="9" width="16" height="13">
<path d="M20.9757 12.1729C20.9856 12.3122 20.9856 12.4514 20.9856 12.5907C20.9856 16.8378 17.7734 21.7315 11.9024 21.7315C10.0936 21.7315 8.41339 21.2043 7 20.2893C7.25699 20.3191 7.50406 20.329 7.77094 20.329C9.26337 20.329 10.6372 19.8218 11.7344 18.9564C10.3308 18.9266 9.15467 18.0016 8.74942 16.7284C8.94712 16.7582 9.14478 16.7781 9.35236 16.7781C9.63898 16.7781 9.92563 16.7383 10.1925 16.6687C8.72968 16.3703 7.63254 15.0773 7.63254 13.5157V13.4759C8.05753 13.7146 8.55176 13.8638 9.07557 13.8837C8.21567 13.3068 7.65231 12.3221 7.65231 11.2081C7.65231 10.6113 7.81043 10.0643 8.08719 9.58683C9.65873 11.5363 12.021 12.8095 14.6698 12.9487C14.6204 12.71 14.5907 12.4614 14.5907 12.2127C14.5907 10.4422 16.014 9 17.7832 9C18.7024 9 19.5326 9.38791 20.1158 10.0145C20.8373 9.8753 21.5292 9.60673 22.142 9.23872C21.9047 9.98472 21.4007 10.6113 20.7385 11.0092C21.3809 10.9396 22.0036 10.7605 22.5769 10.5119C22.1421 11.1484 21.5984 11.7154 20.9757 12.1729Z" fill="white"/>
</mask>
<g mask="url(#mask0_263_1223)">
</g>
</svg>
