<svg width="10" height="10" viewBox="0 0 10 10" fill="none" xmlns="http://www.w3.org/2000/svg">
<g clip-path="url(#clip0_72_2371)">
<path d="M8.72275 2.42953L6.37906 0.0858398C6.32436 0.0311133 6.24969 0 6.17188 0H2.07031C1.58568 0 1.19141 0.394277 1.19141 0.878906V9.12109C1.19141 9.60572 1.58568 10 2.07031 10H7.92969C8.41432 10 8.80859 9.60572 8.80859 9.12109V2.63672C8.80859 2.55684 8.77506 2.48182 8.72275 2.42953ZM6.46484 1.00025L7.80834 2.34375H6.75781C6.59627 2.34375 6.46484 2.21232 6.46484 2.05078V1.00025ZM7.92969 9.41406H2.07031C1.90877 9.41406 1.77734 9.28264 1.77734 9.12109V0.878906C1.77734 0.717363 1.90877 0.585938 2.07031 0.585938H5.87891V2.05078C5.87891 2.53541 6.27318 2.92969 6.75781 2.92969H8.22266V9.12109C8.22266 9.28264 8.09123 9.41406 7.92969 9.41406Z" fill="#00F1EF"/>
<path d="M6.75781 4.14062H3.24219C3.08039 4.14062 2.94922 4.2718 2.94922 4.43359C2.94922 4.59539 3.08039 4.72656 3.24219 4.72656H6.75781C6.91961 4.72656 7.05078 4.59539 7.05078 4.43359C7.05078 4.2718 6.91961 4.14062 6.75781 4.14062Z" fill="#00F1EF"/>
<path d="M6.75781 5.3125H3.24219C3.08039 5.3125 2.94922 5.44367 2.94922 5.60547C2.94922 5.76727 3.08039 5.89844 3.24219 5.89844H6.75781C6.91961 5.89844 7.05078 5.76727 7.05078 5.60547C7.05078 5.44367 6.91961 5.3125 6.75781 5.3125Z" fill="#00F1EF"/>
<path d="M6.75781 6.48438H3.24219C3.08039 6.48438 2.94922 6.61555 2.94922 6.77734C2.94922 6.93914 3.08039 7.07031 3.24219 7.07031H6.75781C6.91961 7.07031 7.05078 6.93914 7.05078 6.77734C7.05078 6.61555 6.91961 6.48438 6.75781 6.48438Z" fill="#00F1EF"/>
<path d="M5.58594 7.65625H3.24219C3.08039 7.65625 2.94922 7.78742 2.94922 7.94922C2.94922 8.11102 3.08039 8.24219 3.24219 8.24219H5.58594C5.74773 8.24219 5.87891 8.11102 5.87891 7.94922C5.87891 7.78742 5.74773 7.65625 5.58594 7.65625Z" fill="#00F1EF"/>
</g>
<defs>
<clipPath id="clip0_72_2371">
<rect width="10" height="10" fill="white"/>
</clipPath>
</defs>
</svg>
