<svg width="17" height="16" viewBox="0 0 17 16" fill="none" xmlns="http://www.w3.org/2000/svg">
<g clip-path="url(#clip0_70_4035)">
<path d="M16 12.875V10.375C16 10.2092 15.9342 10.0503 15.8169 9.93306C15.6997 9.81585 15.5408 9.75 15.375 9.75C15.2092 9.75 15.0503 9.81585 14.9331 9.93306C14.8158 10.0503 14.75 10.2092 14.75 10.375V12.875C14.75 13.0408 14.6842 13.1997 14.5669 13.3169C14.4497 13.4342 14.2908 13.5 14.125 13.5H2.875C2.70924 13.5 2.55027 13.4342 2.43306 13.3169C2.31585 13.1997 2.25 13.0408 2.25 12.875V10.375C2.25 10.2092 2.18415 10.0503 2.06694 9.93306C1.94973 9.81585 1.79076 9.75 1.625 9.75C1.45924 9.75 1.30027 9.81585 1.18306 9.93306C1.06585 10.0503 1 10.2092 1 10.375V12.875C1 13.3723 1.19754 13.8492 1.54917 14.2008C1.90081 14.5525 2.37772 14.75 2.875 14.75H14.125C14.6223 14.75 15.0992 14.5525 15.4508 14.2008C15.8025 13.8492 16 13.3723 16 12.875ZM12.0125 9.6125L8.8875 12.1125C8.77716 12.1997 8.64063 12.2471 8.5 12.2471C8.35937 12.2471 8.22284 12.1997 8.1125 12.1125L4.9875 9.6125C4.87364 9.50502 4.80426 9.35872 4.7931 9.20253C4.78195 9.04635 4.82982 8.89167 4.92725 8.7691C5.02468 8.64652 5.16457 8.56498 5.31924 8.54062C5.47392 8.51625 5.6321 8.55082 5.7625 8.6375L7.875 10.325V1.625C7.875 1.45924 7.94085 1.30027 8.05806 1.18306C8.17527 1.06585 8.33424 1 8.5 1C8.66576 1 8.82473 1.06585 8.94194 1.18306C9.05915 1.30027 9.125 1.45924 9.125 1.625V10.325L11.2375 8.6375C11.3004 8.57809 11.375 8.5324 11.4565 8.50333C11.5381 8.47425 11.6247 8.46242 11.711 8.46859C11.7974 8.47476 11.8815 8.49878 11.958 8.53915C12.0346 8.57952 12.1019 8.63535 12.1558 8.7031C12.2096 8.77085 12.2488 8.84905 12.2709 8.93273C12.2929 9.01642 12.2974 9.10378 12.2839 9.18927C12.2704 9.27476 12.2394 9.35653 12.1926 9.42938C12.1459 9.50223 12.0846 9.56459 12.0125 9.6125Z" fill="white"/>
</g>
<defs>
<clipPath id="clip0_70_4035">
<rect width="17" height="16" fill="white"/>
</clipPath>
</defs>
</svg>
