<svg width="20" height="20" viewBox="0 0 20 20" fill="none" xmlns="http://www.w3.org/2000/svg">
<path d="M17.0703 10.4747H15.1126C14.8461 10.4747 14.5882 10.5111 14.3427 10.5781C13.8584 9.62606 12.8696 8.97192 11.7303 8.97192H8.26973C7.13039 8.97192 6.14164 9.62606 5.65734 10.5781C5.41184 10.5111 5.15387 10.4747 4.88742 10.4747H2.92969C1.31426 10.4747 0 11.789 0 13.4044V16.534C0 17.5033 0.788555 18.2918 1.75781 18.2918H18.2422C19.2114 18.2918 20 17.5033 20 16.534V13.4044C20 11.789 18.6857 10.4747 17.0703 10.4747ZM5.34004 11.9017V17.12H1.75781C1.43473 17.12 1.17188 16.8572 1.17188 16.5341V13.4045C1.17188 12.4352 1.96043 11.6467 2.92969 11.6467H4.88742C5.04648 11.6467 5.20051 11.6683 5.34715 11.7081C5.34293 11.7722 5.34004 11.8366 5.34004 11.9017ZM13.4881 17.12H6.51191V11.9017C6.51191 10.9324 7.30047 10.1438 8.26973 10.1438H11.7303C12.6995 10.1438 13.4881 10.9324 13.4881 11.9017V17.12ZM18.8281 16.5341C18.8281 16.8572 18.5653 17.12 18.2422 17.12H14.66V11.9017C14.66 11.8365 14.6571 11.7721 14.6529 11.708C14.7995 11.6683 14.9535 11.6466 15.1126 11.6466H17.0703C18.0396 11.6466 18.8281 12.4352 18.8281 13.4044V16.5341Z" fill="black"/>
<path d="M3.90854 4.94153C2.47303 4.94153 1.30518 6.10938 1.30518 7.54489C1.30514 8.9804 2.47303 10.1482 3.90854 10.1482C5.344 10.1482 6.51189 8.9804 6.51189 7.54489C6.51189 6.10938 5.34404 4.94153 3.90854 4.94153ZM3.9085 8.97637C3.11916 8.97637 2.47701 8.33422 2.47701 7.54489C2.47701 6.75555 3.11916 6.1134 3.9085 6.1134C4.69783 6.1134 5.33998 6.75555 5.33998 7.54489C5.33998 8.33422 4.69783 8.97637 3.9085 8.97637Z" fill="black"/>
<path d="M10 1.70813C8.08221 1.70813 6.52197 3.26836 6.52197 5.18617C6.52197 7.10398 8.08221 8.66422 10 8.66422C11.9178 8.66422 13.4781 7.10398 13.4781 5.18617C13.4781 3.2684 11.9178 1.70813 10 1.70813ZM10 7.49234C8.72838 7.49234 7.69385 6.45781 7.69385 5.18617C7.69385 3.91457 8.72838 2.88 10 2.88C11.2717 2.88 12.3062 3.91453 12.3062 5.18617C12.3062 6.45781 11.2717 7.49234 10 7.49234Z" fill="black"/>
<path d="M16.0916 4.94153C14.6562 4.94153 13.4883 6.10938 13.4883 7.54489C13.4883 8.9804 14.6562 10.1482 16.0916 10.1482C17.5271 10.1482 18.695 8.9804 18.695 7.54489C18.695 6.10938 17.5271 4.94153 16.0916 4.94153ZM16.0916 8.97637C15.3023 8.97637 14.6602 8.33422 14.6602 7.54489C14.6602 6.75555 15.3023 6.1134 16.0916 6.1134C16.881 6.1134 17.5231 6.75555 17.5231 7.54489C17.5231 8.33422 16.881 8.97637 16.0916 8.97637Z" fill="black"/>
</svg>
