<svg width="10" height="10" viewBox="0 0 10 10" fill="none" xmlns="http://www.w3.org/2000/svg">
<path d="M4.33595 9.68262C4.33572 9.68262 4.33543 9.68262 4.33515 9.68262C4.04178 9.68239 3.76592 9.56795 3.55855 9.36024L0.637789 6.4353C0.210581 6.00729 0.210581 5.31086 0.637789 4.88291L4.57501 0.93813C4.98076 0.531578 5.52064 0.307617 6.09513 0.307617H8.59309C9.19883 0.307617 9.69172 0.8004 9.69172 1.40625V3.89654C9.69172 4.47064 9.46799 5.01028 9.06184 5.41598L5.11237 9.36133C4.90489 9.56853 4.62914 9.68262 4.33595 9.68262ZM6.09513 1.04004C5.71656 1.04004 5.36082 1.18761 5.09343 1.45552L1.15615 5.4003C1.01373 5.54301 1.01373 5.77509 1.15615 5.9178L4.07691 8.84274C4.14597 8.91192 4.23787 8.95014 4.33572 8.9502H4.336C4.43374 8.9502 4.52563 8.91215 4.59475 8.84314L8.54422 4.89785C8.8119 4.63051 8.9593 4.27483 8.9593 3.89654V1.40625C8.9593 1.20432 8.79502 1.04004 8.59309 1.04004H6.09513ZM7.03664 4.02466C6.43084 4.02466 5.938 3.53188 5.938 2.92603C5.938 2.32018 6.43084 1.82739 7.03664 1.82739C7.64243 1.82739 8.13527 2.32018 8.13527 2.92603C8.13527 3.53188 7.64243 4.02466 7.03664 4.02466ZM7.03664 2.55982C6.83471 2.55982 6.67043 2.7241 6.67043 2.92603C6.67043 3.12796 6.83471 3.29224 7.03664 3.29224C7.23863 3.29224 7.40285 3.12796 7.40285 2.92603C7.40285 2.7241 7.23863 2.55982 7.03664 2.55982Z" fill="#00F1EF"/>
</svg>
