<svg width="30" height="30" viewBox="0 0 30 30" fill="none" xmlns="http://www.w3.org/2000/svg">
<path d="M15 30C23.2843 30 30 23.2843 30 15C30 6.71573 23.2843 0 15 0C6.71573 0 0 6.71573 0 15C0 23.2843 6.71573 30 15 30Z" fill="#D0021B"/>
<path fill-rule="evenodd" clip-rule="evenodd" d="M20.1549 10.3165C20.7903 10.4907 21.2908 11.0039 21.4606 11.6556C21.7693 12.8368 21.7693 15.3012 21.7693 15.3012C21.7693 15.3012 21.7693 17.7657 21.4606 18.9469C21.2908 19.5986 20.7903 20.0904 20.1549 20.2646C19.0031 20.5811 14.3846 20.5811 14.3846 20.5811C14.3846 20.5811 9.76618 20.5811 8.61438 20.2646C7.97894 20.0904 7.47848 19.5986 7.30862 18.9469C7 17.7657 7 15.3012 7 15.3012C7 15.3012 7 12.8368 7.30862 11.6556C7.47848 11.0039 7.97894 10.4907 8.61438 10.3165C9.76618 10 14.3846 10 14.3846 10C14.3846 10 19.0031 10 20.1549 10.3165ZM12.8739 13.0637V17.5388L16.734 15.3013L12.8739 13.0637Z" fill="white"/>
<mask id="mask0_263_1224" style="mask-type:alpha" maskUnits="userSpaceOnUse" x="7" y="10" width="15" height="11">
<path fill-rule="evenodd" clip-rule="evenodd" d="M20.1549 10.3165C20.7903 10.4907 21.2908 11.0039 21.4606 11.6556C21.7693 12.8368 21.7693 15.3012 21.7693 15.3012C21.7693 15.3012 21.7693 17.7657 21.4606 18.9469C21.2908 19.5986 20.7903 20.0904 20.1549 20.2646C19.0031 20.5811 14.3846 20.5811 14.3846 20.5811C14.3846 20.5811 9.76618 20.5811 8.61438 20.2646C7.97894 20.0904 7.47848 19.5986 7.30862 18.9469C7 17.7657 7 15.3012 7 15.3012C7 15.3012 7 12.8368 7.30862 11.6556C7.47848 11.0039 7.97894 10.4907 8.61438 10.3165C9.76618 10 14.3846 10 14.3846 10C14.3846 10 19.0031 10 20.1549 10.3165ZM12.8739 13.0637V17.5388L16.734 15.3013L12.8739 13.0637Z" fill="white"/>
</mask>
<g mask="url(#mask0_263_1224)">
</g>
</svg>
