<svg width="10" height="10" viewBox="0 0 10 10" fill="none" xmlns="http://www.w3.org/2000/svg">
<g clip-path="url(#clip0_70_4380)">
<path d="M0.488373 10.0001C0.391786 10.0001 0.297365 9.97146 0.21705 9.9178C0.136736 9.86415 0.0741379 9.78789 0.0371735 9.69865C0.000209163 9.60942 -0.00946059 9.51123 0.00938739 9.4165C0.0282354 9.32177 0.0747543 9.23476 0.14306 9.16647L9.1665 0.143033C9.25808 0.0514506 9.38229 0 9.51181 0C9.64133 0 9.76554 0.0514506 9.85712 0.143033C9.9487 0.234616 10.0002 0.358828 10.0002 0.488346C10.0002 0.617863 9.9487 0.742076 9.85712 0.833658L0.833685 9.8571C0.78838 9.90249 0.734551 9.9385 0.675292 9.96303C0.616033 9.98757 0.55251 10.0002 0.488373 10.0001Z" fill="white"/>
<path d="M9.51374 10.0001C9.4496 10.0002 9.38608 9.98757 9.32682 9.96303C9.26756 9.9385 9.21373 9.90249 9.16842 9.8571L0.144986 0.833658C0.0534037 0.742076 0.00195313 0.617863 0.00195312 0.488346C0.00195313 0.358828 0.0534037 0.234616 0.144986 0.143033C0.236569 0.0514506 0.360781 0 0.490299 0C0.619816 0 0.744029 0.0514506 0.835611 0.143033L9.85905 9.16647C9.92735 9.23476 9.97387 9.32177 9.99272 9.4165C10.0116 9.51123 10.0019 9.60942 9.96494 9.69865C9.92797 9.78789 9.86537 9.86415 9.78506 9.9178C9.70474 9.97146 9.61032 10.0001 9.51374 10.0001Z" fill="white"/>
</g>
<defs>
<clipPath id="clip0_70_4380">
<rect width="10" height="10" fill="white"/>
</clipPath>
</defs>
</svg>
