<svg width="15" height="15" viewBox="0 0 15 15" fill="none" xmlns="http://www.w3.org/2000/svg">
<path d="M7.50011 7.14286C9.47253 7.14286 11.0715 5.54388 11.0715 3.57143C11.0715 1.59898 9.47253 0 7.50011 0C5.52768 0 3.92871 1.59898 3.92871 3.57143C3.92871 5.54388 5.52768 7.14286 7.50011 7.14286Z" fill="white"/>
<path d="M8.2571 7.85693H6.74283C5.85454 7.85974 4.9755 8.03749 4.1559 8.38003C3.3363 8.72256 2.5922 9.22318 1.96607 9.85329C1.33994 10.4834 0.844053 11.2307 0.506721 12.0524C0.169388 12.8742 -0.00278442 13.7544 3.40518e-05 14.6427C3.40518e-05 14.7374 0.0376612 14.8282 0.104638 14.8952C0.171615 14.9622 0.262454 14.9998 0.357174 14.9998H14.6428C14.7419 14.9908 14.8339 14.9445 14.9002 14.8702C14.9665 14.796 15.0021 14.6993 14.9999 14.5998C14.9961 12.8126 14.2845 11.0998 13.0208 9.83604C11.7571 8.57233 10.0442 7.86071 8.2571 7.85693Z" fill="white"/>
</svg>
