<svg width="15" height="15" viewBox="0 0 15 15" fill="none" xmlns="http://www.w3.org/2000/svg">
<g clip-path="url(#clip0_67_2935)">
<path d="M1.30429 2.27167C0.584084 2.27167 0 2.85572 0 3.57645C0 4.29666 0.584084 4.88022 1.30429 4.88022C2.0245 4.88022 2.60859 4.29666 2.60859 3.57645C2.60859 2.85572 2.0245 2.27167 1.30429 2.27167Z" fill="#00F1EF"/>
<path d="M1.30429 6.19574C0.584084 6.19574 0 6.7793 0 7.50003C0 8.22023 0.584084 8.80428 1.30429 8.80428C2.0245 8.80428 2.60859 8.22023 2.60859 7.50003C2.60859 6.7793 2.0245 6.19574 1.30429 6.19574Z" fill="#00F1EF"/>
<path d="M1.30429 10.1194C0.584084 10.1194 0 10.7035 0 11.4237C0 12.1439 0.584084 12.728 1.30429 12.728C2.0245 12.728 2.60859 12.1439 2.60859 11.4237C2.60859 10.7035 2.0245 10.1194 1.30429 10.1194Z" fill="#00F1EF"/>
<path d="M14.0194 2.59528H4.74153C4.19993 2.59528 3.76074 3.03446 3.76074 3.57655C3.76074 4.11818 4.1999 4.55734 4.74153 4.55734H14.0194C14.5609 4.55734 15.0002 4.11818 15.0002 3.57655C15.0002 3.03446 14.5609 2.59528 14.0194 2.59528Z" fill="#00F1EF"/>
<path d="M14.0194 6.51898H4.74153C4.19993 6.51898 3.76074 6.95814 3.76074 7.50026C3.76074 8.04189 4.1999 8.48105 4.74153 8.48105H14.0194C14.5609 8.48105 15.0002 8.04189 15.0002 7.50026C15.0002 6.95814 14.5609 6.51898 14.0194 6.51898Z" fill="#00F1EF"/>
<path d="M14.0194 10.443H4.74153C4.19993 10.443 3.76074 10.8821 3.76074 11.4238C3.76074 11.9654 4.1999 12.4045 4.74153 12.4045H14.0194C14.5609 12.4045 15.0002 11.9654 15.0002 11.4238C15.0002 10.8821 14.5609 10.443 14.0194 10.443Z" fill="#00F1EF"/>
</g>
<defs>
<clipPath id="clip0_67_2935">
<rect width="15" height="15" fill="white"/>
</clipPath>
</defs>
</svg>
