<svg width="30" height="30" viewBox="0 0 30 30" fill="none" xmlns="http://www.w3.org/2000/svg">
<path d="M15 30C23.2843 30 30 23.2843 30 15C30 6.71573 23.2843 0 15 0C6.71573 0 0 6.71573 0 15C0 23.2843 6.71573 30 15 30Z" fill="#272EAE"/>
<path d="M13.4891 22.6757V15.6645H11V12.8784H13.4891V10.6832C13.4891 8.29814 15.0338 7 17.2892 7C18.3698 7 19.298 7.07654 19.5673 7.11022V9.60241H18.0031C16.7764 9.60241 16.5395 10.1535 16.5395 10.9587V12.8784H19.3077L18.928 15.6645H16.5395V22.6757" fill="white"/>
<mask id="mask0_263_1222" style="mask-type:alpha" maskUnits="userSpaceOnUse" x="11" y="7" width="9" height="16">
<path d="M13.4891 22.6757V15.6645H11V12.8784H13.4891V10.6832C13.4891 8.29814 15.0338 7 17.2892 7C18.3698 7 19.298 7.07654 19.5673 7.11022V9.60241H18.0031C16.7764 9.60241 16.5395 10.1535 16.5395 10.9587V12.8784H19.3077L18.928 15.6645H16.5395V22.6757" fill="white"/>
</mask>
<g mask="url(#mask0_263_1222)">
</g>
</svg>
