<svg width="10" height="10" viewBox="0 0 10 10" fill="none" xmlns="http://www.w3.org/2000/svg">
<g clip-path="url(#clip0_66_2430)">
<path d="M8.06932 0.770077H7.69632V0.392648C7.69632 0.177002 7.52151 0.00219727 7.30587 0.00219727C7.09022 0.00219727 6.91542 0.177002 6.91542 0.392648V0.770077H3.08456V0.392648C3.08456 0.177002 2.90976 0.00219727 2.69411 0.00219727C2.47847 0.00219727 2.30366 0.177002 2.30366 0.392648V0.770077H1.93068C0.866099 0.770077 0 1.63618 0 2.70074V8.06705C0 9.13164 0.866099 9.99774 1.93068 9.99774H8.06934C9.1339 9.99774 10 9.13164 10 8.06705V2.70074C10 1.63618 9.1339 0.770077 8.06932 0.770077ZM1.93068 1.55098H2.30366V2.31236C2.30366 2.528 2.47847 2.70281 2.69411 2.70281C2.90976 2.70281 3.08456 2.528 3.08456 2.31236V1.55098H6.91544V2.31236C6.91544 2.528 7.09024 2.70281 7.30589 2.70281C7.52153 2.70281 7.69634 2.528 7.69634 2.31236V1.55098H8.06934C8.70331 1.55098 9.2191 2.06676 9.2191 2.70074V3.07374H0.780902V2.70074C0.780902 2.06676 1.29669 1.55098 1.93068 1.55098ZM8.06932 9.21684H1.93068C1.29669 9.21684 0.780902 8.70105 0.780902 8.06705V3.85464H9.2191V8.06705C9.2191 8.70105 8.70331 9.21684 8.06932 9.21684ZM3.46851 5.39042C3.46851 5.60606 3.29371 5.78087 3.07806 5.78087H2.31018C2.09454 5.78087 1.91973 5.60606 1.91973 5.39042C1.91973 5.17477 2.09454 4.99997 2.31018 4.99997H3.07806C3.29369 4.99997 3.46851 5.17477 3.46851 5.39042ZM8.08029 5.39042C8.08029 5.60606 7.90548 5.78087 7.68984 5.78087H6.92196C6.70631 5.78087 6.53151 5.60606 6.53151 5.39042C6.53151 5.17477 6.70631 4.99997 6.92196 4.99997H7.68984C7.90546 4.99997 8.08029 5.17477 8.08029 5.39042ZM5.77218 5.39042C5.77218 5.60606 5.59737 5.78087 5.38172 5.78087H4.61384C4.3982 5.78087 4.22339 5.60606 4.22339 5.39042C4.22339 5.17477 4.3982 4.99997 4.61384 4.99997H5.38172C5.59735 4.99997 5.77218 5.17477 5.77218 5.39042ZM3.46851 7.69408C3.46851 7.90972 3.29371 8.08453 3.07806 8.08453H2.31018C2.09454 8.08453 1.91973 7.90972 1.91973 7.69408C1.91973 7.47843 2.09454 7.30363 2.31018 7.30363H3.07806C3.29369 7.30363 3.46851 7.47843 3.46851 7.69408ZM8.08029 7.69408C8.08029 7.90972 7.90548 8.08453 7.68984 8.08453H6.92196C6.70631 8.08453 6.53151 7.90972 6.53151 7.69408C6.53151 7.47843 6.70631 7.30363 6.92196 7.30363H7.68984C7.90546 7.30363 8.08029 7.47843 8.08029 7.69408ZM5.77218 7.69408C5.77218 7.90972 5.59737 8.08453 5.38172 8.08453H4.61384C4.3982 8.08453 4.22339 7.90972 4.22339 7.69408C4.22339 7.47843 4.3982 7.30363 4.61384 7.30363H5.38172C5.59735 7.30363 5.77218 7.47843 5.77218 7.69408Z" fill="#00F1EF"/>
</g>
<defs>
<clipPath id="clip0_66_2430">
<rect width="10" height="10" fill="white"/>
</clipPath>
</defs>
</svg>
